/* XPM */
static char *c2[] = {
/* columns rows colors chars-per-pixel */
"70 70 219 2 ",
"   c #58595A",
".  c #5D5F60",
"X  c #67686A",
"o  c #6F7375",
"O  c #787A7B",
"+  c #8A350B",
"@  c #923C0E",
"#  c #973F11",
"$  c #983F11",
"%  c #833213",
"&  c #9B460C",
"*  c #97400B",
"=  c #9B4113",
"-  c #994910",
";  c #AB530E",
":  c #A54E18",
">  c #A34B12",
",  c #AB5314",
"<  c #A75119",
"1  c #A95519",
"2  c #AB591A",
"3  c #A55617",
"4  c #B25B12",
"5  c #A74E0C",
"6  c #AC6413",
"7  c #B3651C",
"8  c #B66B1D",
"9  c #B86F1E",
"0  c #B36816",
"q  c #BB7718",
"w  c #9E5C29",
"e  c #A25D34",
"r  c #9D6027",
"t  c #BF7A20",
"y  c #A26936",
"u  c #C17E21",
"i  c #947353",
"p  c #9A6944",
"a  c #A2784F",
"s  c #857B70",
"d  c #A77B60",
"f  c #D99402",
"g  c #DC9C0A",
"h  c #D69506",
"j  c #D69B17",
"k  c #C38417",
"l  c #DBA618",
"z  c #DDB31B",
"x  c #E0A714",
"c  c #E1A916",
"v  c #E2AD19",
"b  c #C38221",
"n  c #CA8E24",
"m  c #CD9425",
"M  c #CF9825",
"N  c #D29A26",
"B  c #C1983A",
"V  c #D5A227",
"C  c #D7A428",
"Z  c #D8A728",
"A  c #D9A929",
"S  c #D9A825",
"D  c #DFB22A",
"F  c #CCA939",
"G  c #E1AC27",
"H  c #E5B622",
"J  c #E6BA27",
"K  c #E1B62B",
"L  c #E3BA2B",
"P  c #E9BF28",
"I  c #EAC42E",
"U  c #ECCA2E",
"Y  c #E9C423",
"T  c #E9C738",
"R  c #F2DC38",
"E  c #F5E13F",
"W  c #BD9B48",
"Q  c #B69957",
"!  c #BDA05C",
"~  c #A38871",
"^  c #A98D69",
"/  c #B6A273",
"(  c #978776",
")  c #C3925B",
"_  c #DBAA41",
"`  c #E1B550",
"'  c #DBBE7D",
"]  c #E1B860",
"[  c #DCC340",
"{  c #EDC847",
"}  c #E9C240",
"|  c #F4DC49",
" . c #F4DC47",
".. c #EDCC5C",
"X. c #F2DB55",
"o. c #ECD942",
"O. c #F7E44D",
"+. c #F7E347",
"@. c #F7E551",
"#. c #F9E853",
"$. c #F6E459",
"%. c #EFE05B",
"&. c #DFCC75",
"*. c #DAC16D",
"=. c #F1DB77",
"-. c #EFD664",
";. c #FAEC69",
":. c #F6E362",
">. c #F8E677",
",. c #F7E678",
"<. c #737D81",
"1. c #7A878B",
"2. c #798E95",
"3. c #6C939D",
"4. c #769198",
"5. c #6B8A91",
"6. c #5F9EAF",
"7. c #699EAB",
"8. c #7498A2",
"9. c #7A9DA5",
"0. c #5FA5B7",
"q. c #5BA7B9",
"w. c #6AA7B5",
"e. c #74A3B0",
"r. c #37ABC8",
"t. c #36B6D6",
"y. c #2DBEE1",
"u. c #55ACC2",
"i. c #43B1CC",
"p. c #5FB1C7",
"a. c #52B2CA",
"s. c #41B7D5",
"d. c #49B9D5",
"f. c #43AAC3",
"g. c #6CB7C8",
"h. c #2AC4EA",
"j. c #37C8EB",
"k. c #43C2E1",
"l. c #86898B",
"z. c #8A8C8D",
"x. c #818587",
"c. c #989388",
"v. c #838E92",
"b. c #8C8F90",
"n. c #8D9394",
"m. c #82959B",
"M. c #89999C",
"N. c #939394",
"B. c #96999B",
"V. c #9B9C9D",
"C. c #939798",
"Z. c #AF9B90",
"A. c #AB9C8D",
"S. c #9FA199",
"D. c #B8AB88",
"F. c #A7A29C",
"G. c #BCB196",
"H. c #849CA1",
"J. c #889CA2",
"K. c #979EA1",
"L. c #88A3AA",
"P. c #9DA1A2",
"I. c #93A3A9",
"U. c #99ABB1",
"Y. c #91B3BD",
"T. c #A3A4A4",
"R. c #AAABAB",
"E. c #A4A7A9",
"W. c #B7B4A6",
"Q. c #A9B1B4",
"!. c #B4B4B4",
"~. c #BABCBC",
"^. c #B4B7B9",
"/. c #B3AFAD",
"(. c #C2B597",
"). c #D3C794",
"_. c #E3CA8D",
"`. c #EAD58D",
"'. c #F5E284",
"]. c #F9EB8D",
"[. c #F5E488",
"{. c #F7E595",
"}. c #F7E59B",
"|. c #FAEC99",
" X c #F9E993",
".X c #FCF09D",
"XX c #DDCBA7",
"oX c #C6C4BB",
"OX c #D9C9BE",
"+X c #E6D8AD",
"@X c #F9EBA1",
"#X c #F6E6A1",
"$X c #FCF2A3",
"%X c #FAF1AF",
"&X c #F8EEB3",
"*X c #BEBEC0",
"=X c #BEC1C2",
"-X c #C2C3C3",
";X c #C6C9CA",
":X c #CBCBCC",
">X c #CACCC2",
",X c #CCCFD0",
"<X c #C5CED0",
"1X c #CDD1D2",
"2X c #D3D4D5",
"3X c #D5D7D8",
"4X c #DCDCDD",
"5X c #DFDDD6",
"6X c #E4DCD9",
"7X c #F1EDD5",
"8X c #DFE1E1",
"9X c #E3E3E4",
"0X c #E7E7E8",
"qX c #EBECEC",
"wX c #E7E8E8",
"eX c #EFEFF0",
"rX c #F4F4F4",
"tX c #FCFCFC",
"yX c #F5F4E7",
/* pixels */
"h.h.h.h.h.h.h.h.h.h.h.h.h.h.h.h.h.h.h.h.h.h.h.h.h.h.h.h.h.h.h.h.h.h.h.h.h.h.h.h.h.h.h.h.h.h.h.h.h.h.h.h.h.h.h.h.h.h.h.h.h.h.h.h.h.h.h.h.h.h.",
"h.h.h.h.h.h.h.h.h.h.h.h.h.h.h.h.h.h.h.h.h.h.h.h.h.h.h.h.h.h.h.h.h.h.h.h.h.h.h.h.h.h.h.h.h.h.h.h.h.h.h.h.h.h.h.h.h.h.h.h.h.h.h.h.h.h.h.h.h.h.",
"h.h.h.h.h.h.h.h.h.h.h.h.h.h.h.h.h.h.h.h.h.h.h.h.h.h.h.h.h.h.h.h.h.h.h.h.h.h.h.h.h.h.h.h.h.h.h.h.h.h.h.h.h.h.h.h.h.h.h.h.h.h.h.h.h.h.h.h.h.h.",
"h.h.h.h.h.h.h.h.h.h.h.h.h.h.h.h.h.h.h.h.h.h.h.h.h.h.h.h.h.h.h.h.h.h.h.h.h.h.h.h.h.h.h.h.h.h.h.h.h.h.h.h.h.h.h.h.h.h.h.h.h.h.h.h.h.h.h.h.h.h.",
"h.h.h.h.h.h.h.h.h.h.h.h.h.h.h.h.h.h.h.h.h.h.h.h.h.h.h.h.h.h.h.h.h.h.h.h.h.h.h.h.h.h.h.h.h.h.h.h.h.h.h.h.h.h.h.h.h.h.h.h.h.h.h.h.h.h.h.h.h.h.",
"h.h.h.h.h.h.h.h.h.h.h.h.h.h.h.h.h.h.h.h.h.h.h.h.h.h.h.h.h.h.h.h.h.h.h.h.h.h.h.h.h.h.h.h.h.h.h.h.h.h.h.h.h.h.h.h.h.h.h.h.h.h.h.h.h.h.h.h.h.h.",
"h.h.h.h.h.h.h.h.h.h.h.h.h.h.h.h.h.h.h.h.h.h.h.h.h.h.h.h.h.h.h.h.h.h.h.h.h.h.h.h.h.h.h.h.h.h.h.h.h.h.h.h.h.h.h.h.h.h.h.h.h.h.h.h.h.h.h.h.h.h.",
"h.h.h.h.h.h.h.h.h.h.h.h.h.h.h.h.h.h.h.h.h.h.h.h.h.h.h.h.h.h.h.h.h.h.h.h.h.h.h.h.h.h.h.h.h.h.h.h.h.h.h.h.h.h.h.h.h.h.h.h.h.h.h.h.h.h.h.h.h.h.",
"h.h.h.h.h.h.h.h.h.h.h.h.h.h.h.h.h.h.h.h.h.h.h.h.h.h.h.h.h.h.h.h.h.h.h.h.h.h.h.h.h.h.h.h.h.h.h.h.h.h.h.h.h.h.h.h.h.h.h.h.h.h.h.h.h.h.h.h.h.h.",
"h.h.h.h.h.h.h.h.h.h.h.h.h.h.h.h.h.h.h.h.h.h.h.h.h.h.h.h.h.h.h.h.h.h.h.h.h.h.h.h.h.h.h.h.h.h.h.h.h.h.h.h.h.h.h.h.h.h.h.h.h.h.h.h.h.h.h.h.h.h.",
"h.h.h.h.h.h.h.h.h.h.h.h.h.h.h.h.h.h.h.h.h.h.h.h.h.h.h.h.h.h.h.h.h.h.h.h.h.h.h.h.h.h.h.h.h.h.h.h.h.h.h.h.h.h.h.h.h.h.h.h.h.h.h.h.h.h.h.h.h.h.",
"h.h.h.h.h.h.h.h.h.h.h.h.h.h.h.h.h.h.h.h.h.h.h.h.h.h.h.h.h.h.y.e.H.8.w.r.h.h.h.h.s.9.K.E.*XA.m.k.h.h.h.h.h.h.h.h.h.h.h.h.h.h.h.h.h.h.h.h.h.h.",
"h.h.h.h.h.h.h.h.h.h.h.h.h.h.h.h.h.h.h.h.h.h.h.h.h.h.h.h.h.u.b.2X0X9X0X~.T.Q.H.P.!.8XrXtXtXrX4XT.e.h.h.h.h.h.h.h.h.h.h.h.h.h.h.h.h.h.h.h.h.h.",
"h.h.h.h.h.h.h.h.h.h.h.h.h.h.h.h.h.h.h.h.h.h.h.h.h.j.L.U./.;XrXtXtXtXtXtXtXeXrXeXtXtXtXtXtXtXtXrX*XU.h.h.h.h.h.h.h.h.h.h.h.h.h.h.h.h.h.h.h.h.",
"h.h.h.h.h.h.h.h.h.h.h.h.h.h.h.h.h.h.h.h.h.h.h.h.h.I.rXtXtXtXtXtXtXtXtXtXtXtXtXtXtXtXtXtXtXtXtXtXtX*Xg.h.h.h.h.h.h.h.h.h.h.h.h.h.h.h.h.h.h.h.",
"h.h.h.h.h.h.h.h.h.h.h.h.h.h.h.h.h.h.h.h.h.h.h.h.h.Q.tXtXtXtXtXtXtXtXtXtXtXtXtXtXtXtXtXtXtXtXtXtXtXrXY.h.h.h.h.h.h.h.h.h.h.h.h.h.h.h.h.h.h.h.",
"h.h.h.h.h.h.h.h.h.h.h.h.h.h.y.h.0.H.J.L.8.a.y.h.h.J.8XtXtXtXtXtXtXtXtXtXtXtXtXtXtXtXtXtXtXtXtXtXtXeXJ.h.h.h.h.h.h.h.h.h.h.h.h.h.h.h.h.h.h.h.",
"h.h.h.h.h.h.h.h.h.h.h.h.h.h.w.b.2XtXtXtXrX/.1.p.h.v.!.eXtXtXtXtXtXtXtXtXtXtXtXtXtXtXtXtXtXtXtXtXtXwXY.h.h.h.h.h.h.h.h.h.h.h.h.h.h.h.h.h.h.h.",
"h.h.h.h.h.h.h.h.h.h.h.h.h.9.K.eXrXeXqXqXeXrXrXN.p.N.~.~.;X,X9XtXtXtXrX0X9XtXtXtXtXtXtXtXtXtXtXtXeXK.h.h.h.h.h.h.h.h.h.h.h.h.h.h.h.h.h.h.h.h.",
"h.h.h.h.h.h.h.h.h.h.h.h.u.K.qX0X:XE.N.V.!.4XeX8XN.K.oX-X=X-X~.*X*X-X*X3X2X;XqXtXtXtXtXtXtXtXtXtX=Xu.h.h.h.h.h.h.h.h.h.h.h.h.h.h.h.h.h.h.h.h.",
"h.h.h.h.h.h.h.h.h.h.h.h.v.9X0X!.b.4.t.y.w.1.^.qX9X:XoXwX9X2X:X*X-X-X2XqXqX8X3X,X1X;X-X3XtXtXtXrX^.w.h.h.h.h.h.h.h.h.h.h.h.h.h.h.h.h.h.h.h.h.",
"h.h.h.h.h.h.h.h.h.h.h.a.T.qX^.l.p.h.h.h.y.h.2.*XrXqX1X6XqXqXqXqXqXqXqXrXrXeX9X8X-X1X4X:XeXtXtXtX3X4.h.h.h.h.h.h.h.h.h.h.h.h.h.h.h.h.h.h.h.h.",
"h.h.h.h.h.h.h.h.h.h.y.8.3X4XA.8.h.h.h.h.h.h.y.l.wXrX3X5XqXqXqXqXqXqXqXrXtXrXrXrXqXqXrXwX4XtXtXtX9XJ.h.h.h.h.h.h.h.h.h.h.h.h.h.h.h.h.h.h.h.h.",
"h.h.h.h.h.h.h.h.h.h.h.m.qX:Xz.y.h.h.h.h.h.h.h.8.-XeX,XOX6XqXqXqXqXqXqXrXrXrXrXrXqXqXeXqX2XrXrX9XwXn.h.h.h.h.h.h.h.h.h.h.h.h.h.h.h.h.h.h.h.h.",
"h.h.h.h.h.h.h.h.h.h.h.K.eX:Xv.h.h.h.h.h.h.h.h.i.N.9X/.+ + - ) XXqXqXqXrXrXrXrXrXqXqXeXrXqX;XqXqXqXS.h.h.h.h.h.h.h.h.h.h.h.h.h.h.h.h.h.h.h.h.",
"h.h.h.h.h.h.h.h.h.h.h.K.eX:Xm.h.h.h.h.h.h.h.h.h.l.R.d $ : 2 6 9 k j K 7XrXtXrXtXqXqXeXrXrX1X9X+XN c.h.h.h.h.h.h.h.h.h.h.h.h.h.h.h.h.h.h.h.h.",
"h.h.h.h.h.h.h.h.h.h.h.v.rX:X3.h.h.h.h.h.h.h.h.h.2.F.@ = : 2 t n V D H {.%X7X7X%X$.%.[.yXrX+XH j j D.h.h.h.h.h.h.h.h.h.h.h.h.h.h.h.h.h.h.h.h.",
"h.h.h.h.h.h.h.h.h.h.h.M.rX:X3.h.h.h.h.h.h.h.h.h.2.w > = : 7 t n V D I {. X].|..X+.+. .{.@X} L L v G.w.h.h.h.h.h.h.h.h.h.h.h.h.h.h.h.h.h.h.h.",
"h.h.h.h.h.h.h.h.h.h.h.U.rX:X3.h.h.h.h.h.h.h.h.h.M.w > = < 7 t n V D I  X.X.X.X$X+.R #.$X|...U J v XXw.h.h.h.h.h.h.h.h.h.h.h.h.h.h.h.h.h.h.h.",
"h.h.h.h.h.h.h.h.h.h.h.v.rX:Xm.h.h.h.h.h.h.h.h.h.L.- 5 # : 7 t n C D I  X]..X.X$X#.#.@.$X@X-.'.J v _.2.h.h.h.h.h.h.h.h.h.h.h.h.h.h.h.h.h.h.h.",
"h.h.h.h.h.h.h.h.h.h.h.m.rX9Xm.h.h.h.h.h.h.h.h.h.l.& , # < 7 q m V D I |.>..X$X$X#.#.@.$X@X`.rX} v `.J.h.h.h.h.h.h.h.h.h.h.h.h.h.h.h.h.h.h.h.",
"h.h.h.h.h.h.h.h.h.h.h.8.9XeXb.h.h.h.h.h.h.h.h.h.n.& 4 # < 7 t m C K I  X|..X$X$X#.#.@..X'.`.rX{.v ` C.h.h.h.h.h.h.h.h.h.h.h.h.h.h.h.h.h.h.h.",
"h.h.h.h.h.h.h.h.h.h.h.a.R.tXN.s.h.h.h.h.h.h.h.h.V.& , = : 7 u n V K I |.|..X$X$X#.#.#.].@X`.eX`.v ` F.h.h.h.h.h.h.h.h.h.h.h.h.h.h.h.h.h.h.h.",
"h.h.h.h.h.h.h.h.h.h.h.h.z.rX^.8.h.h.h.h.h.h.h.h.s ; , = 1 7 u m C K I |.|.|.$X$X+.#.@.].@X_.qX`.v K c.h.h.h.h.h.h.h.h.h.h.h.h.h.h.h.h.h.h.h.",
"h.h.h.h.h.h.h.h.h.h.h.h.v.4X9Xl.h.h.h.h.h.h.h.h.s ; 1 $ 1 7 u n C K U |.|..X$X$XR +.@.].@X&.8X+Xv l G.t.h.h.h.h.h.h.h.h.h.h.h.h.h.h.h.h.h.h.",
"h.h.h.h.h.h.h.h.h.h.h.h.a.T.eXE.7.h.h.h.h.h.h.h.( ; , $ , 7 u m C K I |.|..X$X$X#.#.@.].@X=.).*.l g G.w.h.h.h.h.h.h.h.h.h.h.h.h.h.h.h.h.h.h.",
"h.h.h.h.h.h.h.h.h.h.h.h.h.v.9X4Xl.y.h.h.h.h.h.r.i ; , = 1 8 u n C K U  X|..X.X$X$.#.#.>.#X'.P H c g XX7.h.h.h.h.h.h.h.h.h.h.h.h.h.h.h.h.h.h.",
"h.h.h.h.h.h.h.h.h.h.h.h.h.u.T.0XQ.1.h.h.h.h.h.w.i 4 , $ 1 8 u m Z K U  X|..X$X$X;. .+.>.@X'.I J c g &.m.h.h.h.h.h.h.h.h.h.h.h.h.h.h.h.h.h.h.",
"h.h.h.h.h.h.h.h.h.h.h.h.h.h.1.2X9XK.8.h.h.h.h.w.a 4 , # 1 8 u m Z K U  X.X.X$X$X;.@.@.,.@X'.P v c g _.M.h.h.h.h.h.h.h.h.h.h.h.h.h.h.h.h.h.h.",
"h.h.h.h.h.h.h.h.h.h.h.h.h.h.s.b.wXwXE.l.s.h.h.5.y 4 , $ 1 8 b m A K U |..X.X$X$X;.#.@.,.#X[.I H v g ] N.h.h.h.h.h.h.h.h.h.h.h.h.h.h.h.h.h.h.",
"h.h.h.h.h.h.h.h.h.h.h.h.h.h.h.p.V.qXqX3XE.U.K.*Xd 4 , = 1 0 u M A L U |..X.X.X$X;.#.#.;.@X}.I H x g F C.h.h.h.h.h.h.h.h.h.h.h.h.h.h.h.h.h.h.",
"h.h.h.h.h.h.h.h.h.h.h.h.h.h.h.h.7.P.tXeXqXqXqXtXZ.4 , $ 1 8 u m A K Y |..X.X.X$X;.#.O.%.@X}.I H c g j c.h.h.h.h.h.h.h.h.h.h.h.h.h.h.h.h.h.h.",
"h.h.h.h.h.h.h.h.h.h.h.h.h.h.h.h.h.0.N.rXrXrXrXtXZ.4 , $ 1 9 b M Z L U |..X.X$X$X;.#.@.| @X}.P H c g h A.i.h.h.h.h.h.h.h.h.h.h.h.h.h.h.h.h.h.",
"h.h.h.h.h.h.h.h.h.h.h.h.h.h.h.h.h.h.a.x.:XtXtXwXZ.4 , $ 1 9 b M A L U X..X$X$X$X;.#. .%.@X#XP H x g h Q w.h.h.h.h.h.h.h.h.h.h.h.h.h.h.h.h.h.",
"h.h.h.h.h.h.h.h.h.h.h.h.h.h.h.h.h.h.h.h.8.M.b.V.e 4 , # 2 9 b M A L U |..X.X$X$X;.#.@.X.|.}.{ H x g f ) 3.h.h.h.h.h.h.h.h.h.h.h.h.h.h.h.h.h.",
"h.h.h.h.h.h.h.h.h.h.h.h.h.h.h.h.h.h.h.h.h.h.h.o 3 & , = 2 9 b M A L U ]..X.X$X$X;.#. . .@X}.{ H c g f B M.h.h.h.h.h.h.h.h.h.h.h.h.h.h.h.h.h.",
"h.h.h.h.h.h.h.h.h.h.h.h.h.h.h.h.h.h.h.h.h.h.h.X ~ $ @ = 2 9 b M A I U ,.|..X.X$X;.+.R | @X}.{ H x g f ) m.h.h.h.h.h.h.h.h.h.h.h.h.h.h.h.h.h.",
"h.h.h.h.h.h.h.h.h.h.h.h.h.h.h.h.h.h.h.h.h.h.h.. !.p + % 3 9 b M l D U [..X.X.X$X;.#.@.R @X}.{ H x h h D.M.h.h.h.h.h.h.h.h.h.h.h.h.h.h.h.h.h.",
"h.h.h.h.h.h.h.h.h.h.h.h.h.h.h.h.h.h.h.h.h.h.y.X 3X*X( % @ 3 k M l L U >..X|.$X$X;.#.O.| }.}...z x h / ^.b.h.h.h.h.h.h.h.h.h.h.h.h.h.h.h.h.h.",
"h.h.h.h.h.h.h.h.h.h.h.h.h.h.h.h.h.h.h.h.h.h.r.  1X3X:X1X~ r 6 k l H Y >.|.$X$X$X;.#.O.+.[.}...l W G.<X1XV.h.h.h.h.h.h.h.h.h.h.h.h.h.h.h.h.h.",
"h.h.h.h.h.h.h.h.h.h.h.h.h.h.h.h.h.h.h.h.h.h.r.  <X3X3X4XwXwXoX^ W F z =. X|.$X$X%.o.T [ &.).D.W.;X3X8X8XP.h.h.h.h.h.h.h.h.h.h.h.h.h.h.h.h.h.",
"h.h.h.h.h.h.h.h.h.h.h.h.h.h.h.h.h.h.h.h.h.h.h.. x.1X3X3X3X4XwXrXeXwX4X2XoX>X>X>X;X3X:X~.~.;X1X3X3X8XtX;Xb.h.h.h.h.h.h.h.h.h.h.h.h.h.h.h.h.h.",
"h.h.h.h.h.h.h.h.h.h.h.h.h.h.h.h.h.h.h.h.h.h.h.f.  O :X2X3X3X3X3X3X4X8X8XqXqX8X8X4X3X3X3X3X3X3X4XeXtX,Xn.q.h.h.h.h.h.h.h.h.h.h.h.h.h.h.h.h.h.",
"h.h.h.h.h.h.h.h.h.h.h.h.h.h.h.h.h.h.h.h.h.h.h.h.y.<.X <.;X,X3X3X3X3X3X3X3X3X3X3X3X3X3X3X3X9XeXtX4XB.b.d.h.h.h.h.h.h.h.h.h.h.h.h.h.h.h.h.h.h.",
"h.h.h.h.h.h.h.h.h.h.h.h.h.h.h.h.h.h.h.h.h.h.h.h.h.h.h.0.o o O E.;X,X2X3X3X3X3X3X3X8XwXeXrXwXQ.n.M.d.h.h.h.h.h.h.h.h.h.h.h.h.h.h.h.h.h.h.h.h.",
"h.h.h.h.h.h.h.h.h.h.h.h.h.h.h.h.h.h.h.h.h.h.h.h.h.h.h.h.h.h.q.1.O o <.1.V.T.E.E.~.P.C.B.B.L.d.h.h.h.h.h.h.h.h.h.h.h.h.h.h.h.h.h.h.h.h.h.h.h.",
"h.h.h.h.h.h.h.h.h.h.h.h.h.h.h.h.h.h.h.h.h.h.h.h.h.h.h.h.h.h.h.h.h.h.h.h.y.r.r.t.h.h.h.h.h.h.h.h.h.h.h.h.h.h.h.h.h.h.h.h.h.h.h.h.h.h.h.h.h.h.",
"h.h.h.h.h.h.h.h.h.h.h.h.h.h.h.h.h.h.h.h.h.h.h.h.h.h.h.h.h.h.h.h.h.h.h.h.h.h.h.h.h.h.h.h.h.h.h.h.h.h.h.h.h.h.h.h.h.h.h.h.h.h.h.h.h.h.h.h.h.h.",
"h.h.h.h.h.h.h.h.h.h.h.h.h.h.h.h.h.h.h.h.h.h.h.h.h.h.h.h.h.h.h.h.h.h.h.h.h.h.h.h.h.h.h.h.h.h.h.h.h.h.h.h.h.h.h.h.h.h.h.h.h.h.h.h.h.h.h.h.h.h.",
"h.h.h.h.h.h.h.h.h.h.h.h.h.h.h.h.h.h.h.h.h.h.h.h.h.h.h.h.h.h.h.h.h.h.h.h.h.h.h.h.h.h.h.h.h.h.h.h.h.h.h.h.h.h.h.h.h.h.h.h.h.h.h.h.h.h.h.h.h.h.",
"h.h.h.h.h.h.h.h.h.h.h.h.h.h.h.h.h.h.h.h.h.h.h.h.h.h.h.h.h.h.h.h.h.h.h.h.h.h.h.h.h.h.h.h.h.h.h.h.h.h.h.h.h.h.h.h.h.h.h.h.h.h.h.h.h.h.h.h.h.h.",
"h.h.h.h.h.h.h.h.h.h.h.h.h.h.h.h.h.h.h.h.h.h.h.h.h.h.h.h.h.h.h.h.h.h.h.h.h.h.h.h.h.h.h.h.h.h.h.h.h.h.h.h.h.h.h.h.h.h.h.h.h.h.h.h.h.h.h.h.h.h.",
"h.h.h.h.h.h.h.h.h.h.h.h.h.h.h.h.h.h.h.h.h.h.h.h.h.h.h.h.h.h.h.h.h.h.h.h.h.h.h.h.h.h.h.h.h.h.h.h.h.h.h.h.h.h.h.h.h.h.h.h.h.h.h.h.h.h.h.h.h.h.",
"h.h.h.h.h.h.h.h.h.h.h.h.h.h.h.h.h.h.h.h.h.h.h.h.h.h.h.h.h.h.h.h.h.h.h.h.h.h.h.h.h.h.h.h.h.h.h.h.h.h.h.h.h.h.h.h.h.h.h.h.h.h.h.h.h.h.h.h.h.h.",
"h.h.h.h.h.h.h.h.h.h.h.h.h.h.h.h.h.h.h.h.h.h.h.h.h.h.h.h.h.h.h.h.h.h.h.h.h.h.h.h.h.h.h.h.h.h.h.h.h.h.h.h.h.h.h.h.h.h.h.h.h.h.h.h.h.h.h.h.h.h.",
"h.h.h.h.h.h.h.h.h.h.h.h.h.h.h.h.h.h.h.h.h.h.h.h.h.h.h.h.h.h.h.h.h.h.h.h.h.h.h.h.h.h.h.h.h.h.h.h.h.h.h.h.h.h.h.h.h.h.h.h.h.h.h.h.h.h.h.h.h.h.",
"h.h.h.h.h.h.h.h.h.h.h.h.h.h.h.h.h.h.h.h.h.h.h.h.h.h.h.h.h.h.h.h.h.h.h.h.h.h.h.h.h.h.h.h.h.h.h.h.h.h.h.h.h.h.h.h.h.h.h.h.h.h.h.h.h.h.h.h.h.h.",
"h.h.h.h.h.h.h.h.h.h.h.h.h.h.h.h.h.h.h.h.h.h.h.h.h.h.h.h.h.h.h.h.h.h.h.h.h.h.h.h.h.h.h.h.h.h.h.h.h.h.h.h.h.h.h.h.h.h.h.h.h.h.h.h.h.h.h.h.h.h.",
"h.h.h.h.h.h.h.h.h.h.h.h.h.h.h.h.h.h.h.h.h.h.h.h.h.h.h.h.h.h.h.h.h.h.h.h.h.h.h.h.h.h.h.h.h.h.h.h.h.h.h.h.h.h.h.h.h.h.h.h.h.h.h.h.h.h.h.h.h.h.",
"h.h.h.h.h.h.h.h.h.h.h.h.h.h.h.h.h.h.h.h.h.h.h.h.h.h.h.h.h.h.h.h.h.h.h.h.h.h.h.h.h.h.h.h.h.h.h.h.h.h.h.h.h.h.h.h.h.h.h.h.h.h.h.h.h.h.h.h.h.h."
};
