/* XPM */
static char *eau2[] = {
/* columns rows colors chars-per-pixel */
"70 70 17 1 ",
"  c #2AC4EA",
". c #55CEF3",
"X c #56CEF3",
"o c #57CEF3",
"O c #58CFF3",
"+ c #59CFF3",
"@ c #5AD0F3",
"# c #5BD0F3",
"$ c #5DD0F3",
"% c #5ED1F3",
"& c #5FD1F3",
"* c #60D1F3",
"= c #61D2F3",
"- c #62D2F3",
"; c #63D2F3",
": c #64D3F3",
"> c #65D3F3",
/* pixels */
"                                                                      ",
"                                                                      ",
"                                                                      ",
"                                                                      ",
"                                                                      ",
"                                                                      ",
"                                                                      ",
"                                                                      ",
"                                                                      ",
"                                                                      ",
"                                                                      ",
"                                                                      ",
"                                                                      ",
"                                                                      ",
"                                                                      ",
"                                                                      ",
"                                                                      ",
"                                                                      ",
"                                                                      ",
"                                                                      ",
"                                                                      ",
"                                                                      ",
"                                                                      ",
"                                                                      ",
"                                                                      ",
"                                                                      ",
"                                                                      ",
"                                                                      ",
"                                                                      ",
"                                                                      ",
"                                                                      ",
"        >>>>>>>>>>>>>>>>>>>>>>                                        ",
"        :::::::::::::::::;;;;>>                                       ",
"        ;;;;;;;;;;::;;;;;;;;;;;                                       ",
"       :;$::;$::;;;$$:;;;;;;;;                                        ",
"     %$:%:%:%:%::$;                                                   ",
"     :$;;$;$$;$$$$                                                    ",
"           $:$$:$:                                                    ",
"                                                                      ",
"                                                                      ",
"                                                                      ",
"                                                                      ",
"                                                                      ",
"                                                                      ",
"                                  $$$$$%%%%%%%                        ",
"                                $$$#$$$#$$$#$$$##$$                   ",
"                                ####$################                 ",
"                                 ##############O######                ",
"                                 OOOOOOO+OOOOOOOOOO#O                 ",
"                        .OOO..OOOOO.OOO.OOO.OOOOOOOO                  ",
"                        oo.OooooOoooOoooOoooOOOO..OOOO.               ",
"                        ooooo.oooooooo.ooooooo...O...O..              ",
"                          ......o.......o................             ",
"                          ......o.......oo................            ",
"                       ..................................             ",
"                    ....................................              ",
"                   ..................................                 ",
"                    .................................                 ",
"                         ......................                       ",
"                                                                      ",
"                                                                      ",
"                                                                      ",
"                                                                      ",
"                                                                      ",
"                                                                      ",
"                                                                      ",
"                                                                      ",
"                                                                      ",
"                                                                      ",
"                                                                      "
};
