/* XPM */
static char *eau3[] = {
/* columns rows colors chars-per-pixel */
"70 70 21 1 ",
"  c #2DAFE8",
". c #2AC4EA",
"X c #68D4F3",
"o c #69D4F3",
"O c #6AD5F3",
"+ c #72D7F3",
"@ c #73D8F3",
"# c #74D8F3",
"$ c #75D8F3",
"% c #77D9F3",
"& c #78D9F3",
"* c #79D9F3",
"= c #7ADAF3",
"- c #7BDAF3",
"; c #7CDBF3",
": c #7EDBF3",
"> c #7FDBF3",
", c #80DCF3",
"< c #81DCF3",
"1 c #82DCF3",
"2 c #84DDF3",
/* pixels */
"......................................................................",
"......................................................................",
"......................................................................",
"......................................................................",
"......................................................................",
"......................................................................",
"......................................................................",
".............................................    .....................",
"............................................          ................",
"..........................................            ................",
"...................................                  .................",
"...................................               ....................",
".................................                  ...................",
"................................                     .................",
"................................                     .................",
"..................................                  ..................",
".....................................               ..................",
".......................................               ................",
".......................................               ................",
".......................................               ................",
".......................................               ................",
"....................................                 .................",
"....................................                  ................",
"....................................                  ................",
".....................................                .................",
"......................................................................",
"......................................................................",
"...............122212222222...........................................",
"............111111<<<2<<<<<<<2<<2<<<<<................................",
"............111111<<<<<<<<<<<<<<<<<<<<................................",
"............>>1>>1>><<><<><><<><<<<>>>................................",
"............>>>>>>>>>>>>1>>>>>>>>>>>>>>1>>>>>><.......................",
"............,;,;;,;;>>>>,;,;,;,;>>;>>;>>;,;,>>;.......................",
"...........&;;;;;;;&--->;;;&;;;;;;;;;;;;;;;;;-;&;;;;&-;...............",
"...........-;>;;>------->--->-;;;;;;;;;;;;;;------;>---...............",
"...........%--&&----%-----%---&;;%%;%%;%&;&;-----%--%--...............",
".............%&&-%-%-+--%--%&&&&;&&&&&&&;&&&&&&&%-%-%-................",
".................%-%%--+%%%%%%&&&.....................................",
"...............%%-%%-%%%%%%%%%%%&.....................................",
".............%%+++%++%+%+%+%%+%@......................................",
".............+@%%++%+%+%@@%...........................................",
".............%+++++%++++@@@...........................................",
"................++++++++@@@...........................................",
"......................................................................",
"......................................................................",
"......................................................................",
"......................................................................",
"......................................................................",
"......................................................................",
"......................................................................",
"......................................................................",
"......................................................................",
"......................................................................",
"......................................................................",
"......................................................................",
"......................................................................",
"..............................................ooooooOOoo..............",
".............................................oooooooooooo.............",
"..............................................ooooXXoooo..............",
"..................................................Xoo.................",
"......................................................................",
"......................................................................",
"......................................................................",
"......................................................................",
"......................................................................",
"......................................................................",
"......................................................................",
"......................................................................",
"......................................................................",
"......................................................................"
};
