/* XPM */
static char *eau4[] = {
/* columns rows colors chars-per-pixel */
"70 70 36 1 ",
"  c #2AC4EA",
". c #55CEF3",
"X c #56CEF3",
"o c #57CEF3",
"O c #58CFF3",
"+ c #59CFF3",
"@ c #5AD0F3",
"# c #5BD0F3",
"$ c #5DD0F3",
"% c #5ED1F3",
"& c #5FD1F3",
"* c #60D1F3",
"= c #61D2F3",
"- c #62D2F3",
"; c #64D3F3",
": c #65D3F3",
"> c #66D3F3",
", c #67D4F3",
"< c #68D4F3",
"1 c #6AD4F3",
"2 c #6BD5F3",
"3 c #6CD5F3",
"4 c #6DD6F3",
"5 c #6ED6F3",
"6 c #6FD6F3",
"7 c #71D7F3",
"8 c #72D7F3",
"9 c #75D8F3",
"0 c #77D9F3",
"q c #78D9F3",
"w c #79D9F3",
"e c #7ADAF3",
"r c #7BDAF3",
"t c #7CDBF3",
"y c #7EDBF3",
"u c #7FDBF3",
/* pixels */
"                                                                      ",
"                                                                      ",
"                                                                      ",
"                                                                      ",
"                                                                      ",
"                                                                      ",
"                                                                      ",
"                                                                      ",
"                                                                      ",
"                                                                      ",
"                                                                      ",
"                                            uuuu                      ",
"                                         yyyyytttuut                  ",
"                                         ytytttttttt                  ",
"                                          eeeeettttt                  ",
"                                           eeeeeweeeeeeeeeet          ",
"                                  wwwwwwwwwwwwwwwwwwwwwwwwww          ",
"                                  000w000w000w0wwww0ww0ww0w0          ",
"                                   000000000000000                    ",
"                                     0070007007070                    ",
"                                                                      ",
"                                                                      ",
"                                                                      ",
"                                                                      ",
"                                                                      ",
"                                                                      ",
"                                                                      ",
"                                                                      ",
"                            777777                                    ",
"                          777776777777777777                          ",
"                          6666667666666666666                         ",
"                          6666666616666626666                         ",
"            6226266  626622626661662662662662                         ",
"       2622226222222222226222222611622222622                          ",
"       22222222222222222222222221112222                               ",
"       211111212121112111211121211112                                 ",
"      ,,>2>,,,2,>,,2,,,2>,2>,2>,2,,,>                                 ",
"   >,,,,>,,,,,>,2>,>,,,,,,,,,,,,>,,,,,,,                              ",
" >>>>>>>>>>>>>>>>>>>>>>>>,>>,>>>>>>>>>>>>>1                           ",
">>>>,->,->>>,->,>,->>,->>->>->>,->>,->>>->>>                          ",
" -;;;;;;>->->->--;-,-,-;>->->---,-;;>>->->-,                          ",
"   ---------------------------------------                            ",
"      ------------%-------->------------%                             ",
"         -+-%-%%%--%%-%%-+-+-%%-%-%%-+---                             ",
"            %--%-%+-%%-%-+--+-%%%%-%%%-+%%                            ",
"              +-+%-%%%%%%%%%-%%-%%%-%%%%%%%-                          ",
"                +-+-+%+%+--++*-+%+%+++--%+%++%                        ",
"                 +%+%+%+%++%+++%+%+%+%+++%+%%++                       ",
"                +++++%++@@@@++++@@++%+++@+%+@@@                       ",
"               O+++++++++++++++++++++++++++++++                       ",
"               O+++++++++++++..+++++.++++.+..@@                       ",
"                +..+...+..+.+.+++..+.+.+.++.+..                       ",
"              ..+......+.+...+.......+...+...                         ",
"           .................................                          ",
"         .....................................                        ",
"         ......................................                       ",
"         ......................................                       ",
"         ......................................                       ",
"           ..................................                         ",
"              .............................                           ",
"                       ....                                           ",
"                                                                      ",
"                                                                      ",
"                                                                      ",
"                                                                      ",
"                                                                      ",
"                                                                      ",
"                                                                      ",
"                                                                      ",
"                                                                      "
};
