/* XPM */
static char *eau5[] = {
/* columns rows colors chars-per-pixel */
"70 70 36 1 ",
"  c #2AC4EA",
". c #55CEF3",
"X c #56CEF3",
"o c #57CEF3",
"O c #58CFF3",
"+ c #59CFF3",
"@ c #5AD0F3",
"# c #5BD0F3",
"$ c #5DD0F3",
"% c #5ED1F3",
"& c #5FD1F3",
"* c #60D1F3",
"= c #61D2F3",
"- c #62D2F3",
"; c #63D2F3",
": c #64D3F3",
"> c #65D3F3",
", c #68D4F3",
"< c #69D4F3",
"1 c #6AD5F3",
"2 c #72D7F3",
"3 c #73D8F3",
"4 c #74D8F3",
"5 c #75D8F3",
"6 c #77D9F3",
"7 c #78D9F3",
"8 c #79D9F3",
"9 c #7ADAF3",
"0 c #7BDAF3",
"q c #7CDBF3",
"w c #7EDBF3",
"e c #7FDBF3",
"r c #80DCF3",
"t c #81DCF3",
"y c #82DCF3",
"u c #84DDF3",
/* pixels */
"                                                                      ",
"                                                                      ",
"                                                                      ",
"                                                                      ",
"                                                                      ",
"                                                                      ",
"                                                                      ",
"                                                                      ",
"                       uuuuuuuuuuuu                                   ",
"                    ruruuruuuruuurruruuruyyyuu                        ",
"                    rruryyrrrrrryurrrrrruryyrr                        ",
"                    rrrrrerrrrrryrrrrrrrr0eyrr                        ",
"                    rrrreeeer0rreerr0rrryerrrrrrt0trwww               ",
"                    00rreeeertr0eer0errree0ree0r0tr0www               ",
"                   r0000007000007e70e00070007000ww00ww0t0000000       ",
"                   00000077e0000e7e77700e700e70090000000000007e       ",
"                   99999999999999099909999999999999999999979909       ",
"                     9997777777777777777779599999999957777e777        ",
"                         9497777777777777                             ",
"                       594997777779577957                             ",
"                     5554444444455555555                              ",
"                     25544444444552                                   ",
"                     32333444433252                                   ",
"                        22222222222                                   ",
"                                                                      ",
"                                    <<11<<<<11                        ",
"                                   <<<<<<<<<<<<                       ",
"                                    <<<<<<<><<                        ",
"                                        <<<                           ",
"                                                                      ",
"                                                                      ",
"        >>>>>>>>>>>>>>>>>>>>>>                                        ",
"        :::-::--::::::--::--::;                                       ",
"        -:--:--;;;:--:-;;:-;;;;                                       ",
"       ;----;;;;;;----;;;;;;;;                                        ",
"     ;%;----%;;;%;-                                                   ",
"     %;%%;%;;%;%%%                                                    ",
"           %%%%%;%                                                    ",
"                                                                      ",
"                                                                      ",
"                       %%%%%%%%%%%%                                   ",
"                     %%%%##%#%##%%%#%#%#                              ",
"                     #+###########+#######                            ",
"                      ################X####                           ",
"                      ###X#XX#X#o##X####X#                            ",
"             #XX#XXXoXXoXXX#X#XXXoXXXXXXX                             ",
"             XX#XXoooooooooo#oooooooXX#oXX#o                          ",
"             XXXXXo.ooooo.o.oo.oooooXXooXXoo.                         ",
"               ...............................                        ",
"               ................................                       ",
"            ..................................                        ",
"         ....................................                         ",
"        ..................................                            ",
"         .................................                            ",
"              ......................                                  ",
"                                                                      ",
"                                                                      ",
"                                                                      ",
"                                                                      ",
"                                                                      ",
"                                                                      ",
"                                                                      ",
"                                                                      ",
"                                                                      ",
"                                                                      ",
"                                                                      ",
"                                                                      ",
"                                                                      ",
"                                                                      ",
"                                                                      "
};
