/* XPM */
static char *ennemie[] = {
/* columns rows colors chars-per-pixel */
"70 70 35 1 ",
"  c #374A59",
". c #365065",
"X c #4A4B4C",
"o c #435E72",
"O c #44657F",
"+ c #963645",
"@ c #F3797B",
"# c #536F82",
"$ c #6A8CA3",
"% c #7A95A7",
"& c #3292E6",
"* c #56B7EF",
"= c #60B6F0",
"- c #2AC4EA",
"; c #99AFBF",
": c #8AB0C7",
"> c #92BAD1",
", c #9ABED2",
"< c #AFBFCA",
"1 c #A8CBDE",
"2 c #BDCAD3",
"3 c #BFCDD7",
"4 c #85CCF5",
"5 c #94D8F7",
"6 c #B8E4FA",
"7 c #BCF5FF",
"8 c #CDCFD0",
"9 c #DBE2E6",
"0 c #DEE5EA",
"q c #D8FAFF",
"w c #ECEFF1",
"e c #EFF2F5",
"r c #F4F8FA",
"t c #F6F9FB",
"y c white",
/* pixels */
"----------------------------------------------------------------------",
"----------------------------------------------------------------------",
"----------------------------------------------------------------------",
"----------------------------------------------------------------------",
"----------------------------------------------------------------------",
"----------------------------------------------------------------------",
"----------------------------------------------------------------------",
"----------------------------------------------------------------------",
"----------------------------------------------------------------------",
"----------------------------------------------------------------------",
"----------------------------------------------------------------------",
"----------------------------------------------------------------------",
"---------------------------.------------------------------------------",
"-------------------------::...----------------------------------------",
"------------------------#:>OO..---------------------------------------",
"------------------------,>$$$O..--------------------------------------",
"------------------------,1eee$O..-------------------------------------",
"-----------------------#,eeeeew#..------------------------------------",
"-----------------------,re###eeeO..-----------------------------------",
"-----------------------ree#eeeeeeO..----------------------------------",
"-----------------------reeeeeeeee;yy----------------------------------",
"----------------------#weeeeeeeeeeyy ---------------------------------",
"----------------------weeeeeeeeeee X ---------------------------------",
"----------------------wee008880eeee ..--------------------------------",
"----------------------we088888880ee;O.#-------------------------------",
"----------------------w0888@@88880eeO..-------------------------------",
"----------------------w888@++++8880e;O..------------------------------",
"----------------------988++++++++880eO..------------------------------",
"---------------------w88+++++++++888eOO.------------------------------",
"---------------------w88++++++++++880eO..-----------------------------",
"---------------------988+++88888++888eOO.-----------------------------",
"---------------------9888888888888888e;O.-----------q7----------------",
"---------------------98888800000888880eO..--774--55677----------------",
"---------------------88880eeeeeeee08883OO.-644--55544-----------------",
"-----------------77--880eeeeeeeeeeee883%O.-44--55**677----------------",
"-----------------444-<0eeeeeeeeeeeeeee33O..#######6444----------------",
"-----------------q64-23eeeeeeeeeeeeeee33OO.O$$$$##.-555*--------------",
"-------------5554776-23eeeeeeeeeeeeeeee33oo###OOO..55***--------------",
"------------55555544-23eeeeeeeeeeeeeeee33o2e$####.5****---------------",
"------------55555**--23eeeeeeeeeeeeeeee33O23eeee###***----------------",
"------------**5555**#23eeeeeeeeeeeeeeee33O23eeeeee###--555555555------",
"------------***555##w22eeeeeeeeeeeeeeee33322677eeeee##*555555555------",
"-------------***5##ee323eeeeeeeeeeeeeee333#2444eeeeee##********-------",
"--------------**4#we7763eeeeeeeeeeeeeee333O263eeeeeeee##44444---------",
"-------q746----*#wee4446eeeeeeeeeeeeeee333O233333eeeeee#44444*--------",
"-------7446---47qqq6e344eeeeeeeeeeeeeeee33O6q43333333eew#444**--------",
"-------------64777666323eeeeeeeeeeeeeeee33%774333333333ew4444**5------",
"-----------56644444446223eeeeeeeeeeeeeee3344422222222223w#6666**55----",
"----------5*566we44444623eeeeeeeeeeeeeee334..44666=446222w66666*555---",
"-----------***#we33336623eeeeeeeeeeeeeee322.4466644444462#66666**55---",
"----------555*wee33222422eeeeeeeeeeeewww2244466646444*466666666**55---",
"-------5555666we332264442wwwwwwwwwwwww4444444666466444**6666666*5-----",
"------55554466we3226644446444444444444666666666=444444**--------------",
"----5555554444w222666666666644466666666666==4666*4444-----------------",
"---555555*4444#22=666664666666666666666666&=4444**5-------------------",
"---55555****-*424==6664===66666664=6=4=4446******55-------------------",
"---55*****---44444=446444466666464444444444655555555------------------",
"---5****------*4466644444466==464444----444---55555-------------------",
"--------------446664444-64444666444-----------------------------------",
"-------------*4444444*--444-666444------------------------------------",
"------------**444444*-------644444------------------------------------",
"------------***444*----------4444-------------------------------------",
"------------******----------------------------------------------------",
"----------------------------------------------------------------------",
"----------------------------------------------------------------------",
"----------------------------------------------------------------------",
"----------------------------------------------------------------------",
"----------------------------------------------------------------------",
"----------------------------------------------------------------------",
"----------------------------------------------------------------------"
};
