/* XPM */
static char *exit[] = {
/* columns rows colors chars-per-pixel */
"70 70 146 2 ",
"   c #010101",
".  c #0C0C0C",
"X  c #160300",
"o  c #1C0500",
"O  c #131314",
"+  c #1D1D1B",
"@  c #2D0800",
"#  c #200600",
"$  c #370A00",
"%  c #312C1D",
"&  c #1D1E20",
"*  c #1F2022",
"=  c #212123",
"-  c #2A2B2D",
";  c #2E2F30",
":  c #2F3031",
">  c #313334",
",  c #3A3B3D",
"<  c #373836",
"1  c #5E1E14",
"2  c #621F14",
"3  c #5D2017",
"4  c #692114",
"5  c #40413F",
"6  c #00335C",
"7  c #3B3C40",
"8  c #202762",
"9  c #27326D",
"0  c #242B78",
"q  c #233779",
"w  c #464547",
"e  c #46484A",
"r  c #4A4B4A",
"t  c #535452",
"y  c #5E5F5D",
"u  c #706B4C",
"i  c #66665D",
"p  c #686859",
"a  c #646462",
"s  c #6C6C6B",
"d  c #686867",
"f  c #776B68",
"g  c #70706F",
"h  c #747473",
"j  c #797B7E",
"k  c #8D3024",
"l  c #862E21",
"z  c #AC3B2B",
"x  c #E82621",
"c  c #E82C21",
"v  c #E83421",
"b  c #E83821",
"n  c #E83C38",
"m  c #AD4432",
"M  c #8D7F3F",
"N  c #F95E10",
"B  c #F96B10",
"V  c #F97310",
"C  c #F97B10",
"Z  c #A27B74",
"A  c #CD5845",
"S  c #F99B1C",
"D  c #FFB324",
"F  c #FFC813",
"G  c #F5C935",
"H  c #FFEA21",
"J  c #968C5C",
"K  c #968951",
"L  c #998B4E",
"P  c #968D64",
"I  c #A99E6B",
"U  c #A99E67",
"Y  c #A9A074",
"T  c #E2C648",
"R  c #FFDB46",
"E  c #FFDD4C",
"W  c #E2C85A",
"Q  c #E2C754",
"!  c #FFDE54",
"~  c #FFDF59",
"^  c #FFE05D",
"/  c #E2CA63",
"(  c #E2CC6C",
")  c #E2CE74",
"_  c #E2CF7B",
"`  c #FFE164",
"'  c #FFE36C",
"]  c #FFE474",
"[  c #FFE67C",
"{  c #2F398B",
"}  c #005B97",
"|  c #3D4DA1",
" . c #235EA9",
".. c #1E6CA1",
"X. c #2875B8",
"o. c #275490",
"O. c #504388",
"+. c #67599E",
"@. c #4F7299",
"#. c #8677B7",
"$. c #4E8FBE",
"%. c #3496C5",
"&. c #3FA1E8",
"*. c #4891C3",
"=. c #618DC8",
"-. c #7EB6DC",
";. c #64BCEF",
":. c #2AC4EA",
">. c #84868A",
",. c #8D8E8D",
"<. c #95979A",
"1. c #968480",
"2. c #A28680",
"3. c #ACADAF",
"4. c #BCBCBC",
"5. c #C69892",
"6. c #D69D96",
"7. c #E4AAA1",
"8. c #E2CF80",
"9. c #E2D187",
"0. c #E2D59B",
"q. c #E2D495",
"w. c #FFE782",
"e. c #FFE886",
"r. c #FFE98C",
"t. c #FFEA94",
"y. c #FFEC9C",
"u. c #E2D7A3",
"i. c #FFEEA4",
"p. c #FFEFAC",
"a. c #FFF0AF",
"s. c #FFF1B4",
"d. c #FFF2BB",
"f. c #C6B6EB",
"g. c #A0DBF7",
"h. c #A9EDF7",
"j. c #CDCDCD",
"k. c #D5D5D4",
"l. c #DBDBDB",
"z. c #E7D2CF",
"x. c #FFF3C3",
"c. c #FFF5CB",
"v. c #E6E6E6",
"b. c #EFEFEF",
"n. c #FFFFFF",
"m. c #F3F3F3",
/* pixels */
":.:.:.:.:.:.:.:.:.:.:.:.:.:.:.:.:.:.:.:.:.:.:.:.:.:.:.:.:.:.:.:.:.:.:.:.:.:.:.:.:.:.:.:.:.:.:.:.:.:.:.:.:.:.:.:.:.:.:.:.:.:.:.:.:.:.:.:.:.:.",
":.:.:.:.:.:.:.:.:.:.:.:.:.:.:.:.:.:.:.:.:.:.:.:.:.:.:.:.:.:.:.:.:.:.:.:.:.:.:.:.:.:.:.:.:.:.:.:.:.:.:.:.:.:.:.:.:.:.:.:.:.:.:.:.:.:.:.:.:.:.",
":.:.:.:.:.:.:.:.:.:.:.:.:.:.:.:.:.:.:.:.:.:.:.:.:.:.:.:.:.:.:.:.:.:.:.:.:.:.:.:.:.:.:.:.:.:.:.:.:.:.:.:.:.:.:.:.:.:.:.:.:.:.:.:.:.:.:.:.:.:.",
":.:.:.:.:.:.:.:.:.:.:.:.:.:.:.:.:.:.:.:.:.:.:.:.:.:.:.:.:.:.:.:.:.:.:.:.:.:.:.:.:.:.:.:.:.:.:.:.:.:.:.:.:.:.:.:.:.:.:.:.:.:.:.:.:.:.:.:.:.:.",
":.:.:.:.:.:.:.:.:.:.:.:.:.:.:.:.:.:.:.:.:.:.:.:.:.:.:.:.:.:.:.:.:.:.:.:.:.:.:.:.:.:.:.:.:.:.:.:.:.:.:.:.:.:.:.:.:.:.:.:.:.:.:.:.:.:.:.:.:.:.",
":.:.:.:.:.:.:.:.:.:.:.:.:.:.:.:.:.:.:.:.:.:.:.:.:.:.:.:.:.:.:.:.:.:.:.:.:.:.:.:.:.:.:.:.:.:.:.:.:.:.:.:.:.:.:.:.:.:.:.:.:.:.:.:.:.:.:.:.:.:.",
":.:.:.:.:.:.:.:.:.:.:.:.:.:.:.:.:.:.:.:.:.:.:.:.:.:.:.:.:.:.:.:.:.    :.:.:.:.:.:.:.:.:.:.:.:.:.:.:.:.:.:.:.:.:.:.:.:.:.:.:.:.:.:.:.:.:.:.:.",
":.:.:.:.:.:.:.:.:.:.:.:.:.:.:.:.:.:.:.:.:.:.:.:.:.:.:.:.:.:.:.:.:.    O :.:.:.:.:.:.:.:.:.:.:.:.:.:.:.:.:.:.:.:.:.:.:.:.:.:.:.:.:.:.:.:.:.:.",
":.:.:.:.:.:.:.:.:.:.:.:.:.:.:.:.:.:.:.:.:.:.:.:.:.:.:.:.:.:.:.          :.:.:.:.:.:.:.:.:.:.:.:.:.:.:.:.:.:.:.:.:.:.:.:.:.:.:.:.:.:.:.:.:.:.",
":.:.:.:.:.:.:.:.:.:.:.:.:.:.:.:.:.:.:.:.:.:.:.:.:.:.:.                  :.:.:.:.:.:.:.:.:.:.:.:.:.:.:.:.:.:.:.:.:.:.:.:.:.:.:.:.:.:.:.:.:.:.",
":.:.:.:.:.:.:.:.:.:.:.:.:.:.:.:.:.:.:.:.:.:.:.:.:.        w r w         :.:.:.:.:.:.:.:.:.:.:.:.:.:.:.:.:.:.:.:.:.:.:.:.:.:.:.:.:.:.:.:.:.:.",
":.:.:.:.:.:.:.:.:.:.:.:.:.:.:.:.:.:.:.:.:.:.:.:.          O   O               :.:.:.:.:.:.:.:.:.:.:.:.:.:.:.:.:.:.:.:.:.:.:.:.:.:.:.:.:.:.:.",
":.:.:.:.:.:.:.:.:.:.:.:.:.:.:.:.:.:.:.:.:.:.:.        j                 = =   :.:.:.:.:.:.:.:.:.:.:.:.n.n.n.n.n.m.n.n.n.3.:.:.:.:.:.:.:.:.:.",
":.:.:.:.:.:.:.:.:.:.:.:.:.:.:.:.:.:.:.:.:.:.    O   j w w             t n.n.t   :.:.:.:.:.:.:.:.:.:.:.j z.n.n.n.m.n.n.b.4.:.:.:.:.:.:.:.:.:.",
":.:.:.:.:.:.:.:.:.:.:.:.:.:.:.:.:.:.:.:.:.:.  O     j n.n.n..       n.n.n.n.n.y   :.:.:.:.:.:.:.:.:.:.3 7.7.5.6.6.6.z.5.k :.:.:.:.:.:.:.:.:.",
":.:.:.:.:.:.:.:.:.:.:.:.:.:.:.:.:.:.:.:.:.    O   j n.n.n.n.n.w r O n.n.n.n.n.n.  :.:.:.:.:.:.:.:.:.3.3 A A z z z z 6.5.k :.:.:.:.:.:.:.:.:.",
":.:.:.:.:.:.:.:.:.:.:.:.:.:.:.:.:.:.:.:.:.    O   j n.n.9 9 n.n.h t n.6 k.9 6 n.    :.:.:.:.:.:.:.:.3.o z @ $ $ $ $ 2.1.# :.:.:.:.:.:.:.:.:.",
":.:.:.:.:.:.:.:.:.:.:.:.:.:.:.:.:.:.:.:.:.  O O = r n.k.n.  q n.n.t n.n.n.  X.n.y     :.:.:.:.:.:.:.3.4 m # @ @ @ @ f Z 4 :.:.:.:.:.:.:.:.:.",
":.:.:.:.:.:.:.:.:.:.:.:.:.:.:.:.:.:.:.:.:.  O O = w n.n.n.k.6 n.n.r n.n.n.  6 n.t     :.:.:.:.:.:.:.:.1 m m 4 4 4 Z Z Z o :.:.:.:.:.:.:.:.:.",
":.:.:.:.:.:.:.:.:.:.:.:.:.:.:.:.:.:.:.:.:.  O O w 5 n.n.n.  ..n.n.w n.n.n.  $.n.w O     :.:.:.:.:.:.:.3.l m m 3 4 Z f f ; : :.:.:.:.:.:.:.:.",
":.:.:.:.:.:.:.:.:.:.:.:.:.:.:.:.:.:.:.:.:.  O O w < n.n.n.  *.n.n.w n. .-.} h.n., O     :.:.:.:.:.:.:.:.:.X X X o f ,.; : :.:.:.:.:.:.:.:.:.",
":.:.:.:.:.:.:.:.:.:.:.:.:.:.:.:.:.:.:.:.:.  O O w w n.X.@.6 h.n.n.w n.6   6 =.n.j =       :.:.:.:.:.:.:.. > < < > & ; > h :.:.:.:.:.:.:.:.:.",
":.:.:.:.:.:.:.:.:.:.:.:.:.:.:.:.:.:.:.:.:.  O O . . + n.o.%.*.n.< : > n.n.n.n.< j w w w     :.:.:.:.:.. . P +.+ * > > h :.:.:.:.:.:.:.:.:.:.",
":.:.:.:.:.:.:.:.:.:.:.:.:.:.:.:.:.:.:.:.:.      . j . + + n.n.,.v c v v v F n r w w w w w     :.:.:.:.. . @.% + 3.: > :.:.:.:.:.:.:.:.:.:.:.",
":.:.:.:.:.:.:.:.:.:.:.:.:.:.:.:.:.:.:.:.:.    j w w j j + + ,.c c C S S S H G n n n n n : O   :.:.:.. . j e & & 4.: h :.:.:.:.:.:.:.:.:.:.:.",
":.:.:.:.:.:.:.:.:.:.:.:.:.:.:.:.:.:.:.:.:.  O w w w w w w n c c C S S S S S H H S n b b n O   :.:.. . j v.e & n.n.n.n.3.:.:.:.:.:.:.:.:.:.:.",
":.:.:.:.:.:.:.:.:.:.:.:.:.:.:.:.:.:.:.:.:.  w w w > x x x x c V S S S S S S H H S b v b > O   :.. . < Z 4.4.n.n.n.n.4.3.:.:.:.:.:.:.:.:.:.:.",
":.:.:.:.:.:.:.:.:.:.:.:.:.:.:.:.:.:.:.:.:.  O w w N x x B B V V S S S S S S S H H b % : O O . . . + < @.e & - g h h :.:.:.:.:.:.:.:.:.:.:.:.",
":.:.:.:.:.:.:.:.:.:.:.:.:.:.:.:.:.:.:.:.:.    w w N x x x x c c C C C S S S S H H n w O O O . & e & > j e ; - v.h :.:.:.:.:.:.:.:.:.:.:.:.:.",
":.:.:.:.:.:.:.:.:.:.:.:.:.:.:.:.:.:.:.:.:.    O w < , x x x c c c c c C S S S H F v w O O . . * e & > e * - g v.g :.:.:.:.:.:.:.:.:.:.:.:.:.",
":.:.:.:.:.:.:.:.:.:.:.:.:.:.:.:.:.:.:.:.:.  O O O O w w w x c x c V c c C S S S D v 5 ^ ^ . . . * * j e * - n.g g :.:.:.:.:.:.:.:.:.:.:.:.:.",
":.:.:.:.:.:.:.:.:.:.:.:.:.:.:.:.:.:.:.:.    e e , , w w w w w n x c c c c x S S v v ^ ^ ` . . . & * > e - - n.g s :.:.:.:.:.:.:.:.:.:.:.:.:.",
":.:.:.:.:.:.:.:.:.:.:.:.:.:.:.:.:.:.:.    - e r < < =.G R R R E T M c c c c c C v n ` ` ' / . . . & & & - s l.s :.:.:.:.:.:.:.:.:.:.:.:.:.:.",
":.:.:.:.:.:.:.:.:.:.:.:.:.:.:.:.:.      - - e r 5 5 % >.T E E E E ^ ^ n c c c c c ] ] ] ] ( . . . e e & - n.l.s :.:.:.:.:.:.:.:.:.:.:.:.:.:.",
":.:.:.:.:.:.:.:.:.:.:.:.:.:.:.      - - e e r r + 5 , , T Q ^ ^ ^ ` ` ` L v c c c ] ] ] [ [ . . . e & - - l.s d g.:.:.:.:.:.:.:.:.:.:.:.:.:.",
":.:.:.:.:.:.:.:.:.:.:.:.:.    . r j j e - + + r w < , , Q Q W W ` ' ' ' ] K S L ] w.e.e.e._ _ . . & + - k.k.d ;.;.g.g.:.g.g.g.:.:.:.:.:.:.:.",
":.:.:.:.:.:.:.:.:.:.:.g.    e P $.P Z j j + + + w = , 7 7 W / / / ] ] ] ] [ [ w.e.e.r.r.r.J J . & & - - k.d j 0 | ;.;.g.g.g.g.g.:.:.:.:.:.:.",
":.:.:.:.:.:.:.:.:.:.g.g.  e @.5 5 5 e w j j + + & w = 7 7 / / ( ( [ [ w.w.e.r.r.r.r.r.t.J J J . . & - d d a O.0 0 ;.;.;.g.g.g.g.g.:.:.:.:.:.",
":.:.:.:.:.:.:.:.:.g.g.a a - e e e e e e r r +.r + + O , 7 7 ( ) ) ) _ e.r.r.r.t.t.U I P J P P q.- - - a a O.O.O.0 0 ;.;.;.g.g.g.g.:.:.:.:.:.",
":.:.:.:.:.:.:.:.g.g.g.a a y - - - - - * 5 t 5 j + + - O 7 , _ _ _ _ 8.8.9.t.U U I u P P P P q.0.j.a j.8 O.O.O.O.O.0 0 ;.;.;.g.g.g.g.:.:.:.:.",
":.:.:.:.:.:.:.g.g.g.g.a y a a a a a a a a - - e j + + - , , _ 8.t.t.t.y.y.y.I Y Y u 0.0.q.0.u.d.u.>.8 8 O.O.O.O.O.0 0 ;.;.;.g.g.g.g.g.:.:.:.",
":.:.:.:.:.:.:.g.g.g.g.g.a a i a a a a a i i a - e j + - * 7 8.9.y.y.y.i.i.i.Y Y Y p.s.s.d.d.d.d.x.>.>.8 O.O.O.O.O.O.0 ;.;.;.;.g.g.g.g.g.:.:.",
":.:.:.:.:.:.:.g.g.g.g.;.| { +.+.+.+.+.+.i i i i - e + - - 7 9.q.i.i.i.p.p.p.p.s.d.d.d.d.x.x.x.c.c.>.>.O.O.O.O.O.O.O.0 | ;.;.;.g.g.g.g.g.:.:.",
":.:.:.:.:.:.:.:.g.g.g.;.{ { +.+.+.+.+.+.+.i i i i - + - - 7 0.q.p.p.p.s.s.d.d.d.d.d.x.x.x.c.c.<.<.<.O.O.O.O.O.O.O.O.0 | ;.;.;.g.g.g.g.g.:.:.",
":.:.:.:.:.:.:.g.g.;.&.;.| +.+.#.#.#.+.+.+.8 p p i i i j - 7 0.p.s.s.d.d.d.d.x.x.x.x.c.c.c.<.<.<.<.O.+.+.+.O.O.O.O.O.0 | ;.;.;.g.g.g.g.g.:.:.",
":.:.:.:.:.:.:.g.g.;.&.;.{ +.+.f.f.#.#.#.+.+.8 p p i i - e 7 u.d.d.d.d.x.x.x.c.c.c.<.<.<.<.<.8 +.+.+.+.+.+.+.O.O.O.O.0 ;.;.g.g.g.g.g.g.g.:.:.",
":.:.:.:.:.:.:.g.g.;.;.;.{ { +.f.f.f.f.#.#.+.+.+.8     - e , , x.x.x.<.<.<.<.<.<.<.<.<.O.O.+.+.+.+.+.+.+.+.+.O.O.O.O.0 ;.;.g.g.g.:.g.g.g.:.:.",
":.:.:.:.:.:.:.g.h.;.;.;.| { +.f.f.f.f.#.#.#.+.+.+.+.+.8 e w , <.<.<.<.<.<.O.O.O.+.+.+.+.+.+.+.+.+.+.+.+.+.+.O.O.O.0 0 ;.;.g.g.g.g.g.g.g.:.:.",
":.:.:.:.:.:.:.g.g.;.;.;.;.{ +.#.f.f.f.f.#.#.#.#.#.+.+.+.+.+.+.+.+.+.+.+.+.+.+.+.#.#.#.#.#.#.#.+.+.+.+.+.+.O.O.O.0 0 ;.;.;.g.g.g.g.g.g.:.:.:.",
":.:.:.:.:.:.:.g.g.;.;.;.;.{ { +.#.f.f.f.f.f.#.#.#.#.#.#.#.#.#.#.#.#.#.#.#.#.#.#.#.#.#.#.#.#.#.#.+.+.+.+.+.O.O.0 0 | ;.;.g.g.g.g.g.g.g.:.:.:.",
":.:.:.:.:.:.:.g.g.;.;.;.;.;.{ +.+.#.f.f.f.f.f.#.#.#.#.#.#.#.#.#.#.#.#.#.#.#.#.#.#.#.#.#.#.#.#.#.+.+.+.+.O.O.0 0 0 ;.;.g.g.g.g.g.g.g.:.:.:.:.",
":.:.:.:.:.:.:.g.g.g.;.;.;.;.{ { +.+.#.f.f.f.f.f.#.#.#.#.#.#.#.#.#.#.#.#.#.#.#.#.#.#.#.#.#.#.#.+.+.+.+.O.O.0 0 0 ;.;.;.g.g.g.:.g.g.g.:.:.:.:.",
":.:.:.:.:.:.:.g.g.g.;.;.;.;.;.{ { +.+.#.f.f.f.f.f.#.#.#.#.#.#.#.#.#.#.#.#.#.#.#.#.#.#.#.#.#.+.+.+.+.O.O.0 0 | ;.;.;.g.g.g.g.:.g.g.:.:.:.:.:.",
":.:.:.:.:.:.:.g.g.g.g.;.;.;.;.;.{ { +.+.#.#.#.#.#.f.f.f.#.#.#.#.#.#.#.#.#.#.#.#.#.#.#.#.#.+.+.+.+.O.0 0 0 ;.;.;.;.g.g.g.g.g.g.:.:.:.:.:.:.:.",
":.:.:.:.:.:.:.g.g.g.g.;.;.;.;.;.;.{ { { +.+.#.#.#.#.#.#.#.#.#.#.#.#.#.#.#.#.#.#.#.#.+.+.+.+.+.0 0 0 0 ;.;.;.;.;.;.g.g.g.g.g.g.:.:.:.:.:.:.:.",
":.:.:.:.:.:.:.g.g.g.g.g.g.;.;.;.;.;.{ { { { +.+.+.#.#.#.#.#.#.#.#.#.#.#.#.#.#.+.+.+.+.+.{ { { 0 0 ;.;.;.;.;.;.;.g.g.g.:.g.g.:.:.:.:.:.:.:.:.",
":.:.:.:.:.:.:.:.g.g.g.g.g.g.g.;.&.&.;.;.{ { { { { +.+.+.+.+.+.+.+.+.+.+.+.+.+.+.{ { { { { { ;.;.;.;.;.;.;.;.g.g.g.g.:.:.:.:.:.:.:.:.:.:.:.:.",
":.:.:.:.:.:.:.:.:.g.g.g.g.g.g.;.;.;.;.;.;.;.;.| { { { { { { { { { { { { { { { { { | ;.;.;.;.;.;.;.;.;.;.g.g.g.g.:.:.:.:.:.:.:.:.:.:.:.:.:.:.",
":.:.:.:.:.:.:.:.:.:.g.g.g.g.g.g.g.g.g.g.;.;.;.;.;.;.;.;.;.;.;.;.;.;.;.;.;.;.;.;.;.;.;.;.;.;.;.;.;.;.g.g.g.g.:.:.:.:.:.:.:.:.:.:.:.:.:.:.:.:.",
":.:.:.:.:.:.:.:.:.:.:.g.g.g.g.g.:.g.g.g.g.g.g.g.;.;.;.;.;.;.;.;.;.;.;.;.;.;.g.g.g.;.;.;.;.;.;.g.g.g.g.g.:.:.:.:.:.:.:.:.:.:.:.:.:.:.:.:.:.:.",
":.:.:.:.:.:.:.:.:.:.:.:.:.:.g.g.g.g.:.g.g.g.g.g.g.g.g.g.g.g.g.g.g.g.g.g.;.;.;.;.;.g.g.g.g.g.g.g.g.:.:.:.:.:.:.:.:.:.:.:.:.:.:.:.:.:.:.:.:.:.",
":.:.:.:.:.:.:.:.:.:.:.:.:.:.:.:.g.g.g.g.g.g.g.g.g.g.g.g.g.g.g.g.g.g.g.;.;.;.;.;.g.g.g.g.g.g.g.g.:.:.:.:.:.:.:.:.:.:.:.:.:.:.:.:.:.:.:.:.:.:.",
":.:.:.:.:.:.:.:.:.:.:.:.:.:.:.:.:.:.:.g.g.g.g.g.g.g.g.g.g.:.:.g.g.g.g.g.g.g.g.g.g.g.:.:.g.g.g.:.:.:.:.:.:.:.:.:.:.:.:.:.:.:.:.:.:.:.:.:.:.:.",
":.:.:.:.:.:.:.:.:.:.:.:.:.:.:.:.:.:.:.:.g.g.g.g.g.g.g.g.g.:.:.g.g.g.g.g.g.:.:.:.:.:.:.:.:.:.:.:.:.:.:.:.:.:.:.:.:.:.:.:.:.:.:.:.:.:.:.:.:.:.",
":.:.:.:.:.:.:.:.:.:.:.:.:.:.:.:.:.:.:.:.:.:.:.:.:.:.:.:.:.:.:.:.:.:.:.:.:.:.:.:.:.:.:.:.:.:.:.:.:.:.:.:.:.:.:.:.:.:.:.:.:.:.:.:.:.:.:.:.:.:.",
":.:.:.:.:.:.:.:.:.:.:.:.:.:.:.:.:.:.:.:.:.:.:.:.:.:.:.:.:.:.:.:.:.:.:.:.:.:.:.:.:.:.:.:.:.:.:.:.:.:.:.:.:.:.:.:.:.:.:.:.:.:.:.:.:.:.:.:.:.:.",
":.:.:.:.:.:.:.:.:.:.:.:.:.:.:.:.:.:.:.:.:.:.:.:.:.:.:.:.:.:.:.:.:.:.:.:.:.:.:.:.:.:.:.:.:.:.:.:.:.:.:.:.:.:.:.:.:.:.:.:.:.:.:.:.:.:.:.:.:.:.",
":.:.:.:.:.:.:.:.:.:.:.:.:.:.:.:.:.:.:.:.:.:.:.:.:.:.:.:.:.:.:.:.:.:.:.:.:.:.:.:.:.:.:.:.:.:.:.:.:.:.:.:.:.:.:.:.:.:.:.:.:.:.:.:.:.:.:.:.:.:.",
":.:.:.:.:.:.:.:.:.:.:.:.:.:.:.:.:.:.:.:.:.:.:.:.:.:.:.:.:.:.:.:.:.:.:.:.:.:.:.:.:.:.:.:.:.:.:.:.:.:.:.:.:.:.:.:.:.:.:.:.:.:.:.:.:.:.:.:.:.:.",
":.:.:.:.:.:.:.:.:.:.:.:.:.:.:.:.:.:.:.:.:.:.:.:.:.:.:.:.:.:.:.:.:.:.:.:.:.:.:.:.:.:.:.:.:.:.:.:.:.:.:.:.:.:.:.:.:.:.:.:.:.:.:.:.:.:.:.:.:.:."
};
