/* XPM */
static char *ile1[] = {
/* columns rows colors chars-per-pixel */
"70 70 26 1 ",
"  c #2AC4EA",
". c #4DCEEE",
"X c #4ECEEE",
"o c #4FCEEE",
"O c #4FCFEE",
"+ c #50CFEE",
"@ c #51CFEE",
"# c #52CEEE",
"$ c #52CFEE",
"% c #53CFEE",
"& c #54CFEE",
"* c #53D0EE",
"= c #54D0EE",
"- c #55D0EE",
"; c #F3D9BA",
": c #A2E4F7",
"> c #A3E4F7",
", c #A5E7F7",
"< c #A6E7F7",
"1 c #A7E7F7",
"2 c #A8E7F7",
"3 c #A9E7F7",
"4 c #AAE7F7",
"5 c #AAE8F7",
"6 c #F9EBDA",
"7 c white",
/* pixels */
"                                                                      ",
"                                                                      ",
"                                                                      ",
"                                                                      ",
"                                                                      ",
"                                                                      ",
"                                                                      ",
"                                                                      ",
"                 -------                                              ",
"              ---######O---                 --------                  ",
"            --#######*#**##---           ---*#*#*###---               ",
"           -########*#*##*-#*#---    ----#*##*#**######*-             ",
"         --#######*O*#-#-#-##-#-#-----#--##*#--##*#*#####-            ",
"        -########*#*#*#&#*#*&&-##-&*&&&&#--#*##**#*#*#####--          ",
"       -########*#*#-#&&&&-&#-&&--*--*&&-&&&&#-##*#*#*######-         ",
"      -########*#-#-#*33333&-*-*-*-**--*-*&&7&#-*#*#*#**#####-        ",
"     -########*#*##53366666655*----7--7--5577333##7#*#*#*#####-       ",
"    -########*#*#5366666666666633*##7336666666777777#-#**######-      ",
"    -########*##7:66666666666666666666666666666666377#*##*######-     ",
"   -#######O*#7776666666;;;;;6666666666666666666666637#-*#######-     ",
"   -#######*#736766666;;;;;;;;;6666666;;;;;;;;666666673##**######-    ",
"  -#######*#77666666;;;;;;;;;;;;;;;;;;;;;;;;;;;;66667773*#O*#####-    ",
"  -######*#-3666666;;;;;;;;;;;;;;;;;;;;;;;;;;;;;;6666663#**#*#####-   ",
"  -#######*#366666;;;;;;;;;;;;;;;;;;;;;;;;;;;;;;;;;666665##*######-   ",
"  -#######*776666;;;;;;;;;;;;;;;;;;;;;;;;;;;;;;;;;;666663##-#*####-   ",
"  -#####*O#16666;;;;;;;;;;;;;;;;;;;;;;;;;;;;;;;;;;;;666665*#*#####-   ",
"  -######*776666;;;;;;;;;;;;;;;;;;;;;;;;;;;;;;;;;;;;;66663#-*#####-   ",
"  -####**#37666;;;;;;;;;;;;;;;;;;;;;;;;;;;;;;;;;;;;;;66663*##*#####-  ",
"  -######*77666;;;;;;;;;;;;;;;;;;;;;;;;;;;;;;;;;;;;;;666667#*#*####-  ",
"  -####**#36666;;;;;;;;;;;;;;;;;;;;;;;;;;;;;;;;;;;;;;;66667*#*#####-  ",
"   -#####7#6666;;;;;;;;;;;;;;;;;;;;;;;;;;;;;;;;;;;;;;;66667#*#*O###-  ",
"   -###**773666;;;;;;;;;;;;;;;;;;;;;;;;;;;;;;;;;;;;;;;66663*#*####-   ",
"    *##*#-#36666;;;;;;;;;;;;;;;;;;;;;;;;;;;;;;;;;;;;;;66665#*#*###-   ",
"    -#*#*#*73666;;;;;;;;;;;;;;;;;;;;;;;;;;;;;;;;;;;;;;6666#*#*#*##-   ",
"     -*O#--736666;;;;;;;;;;;;;;;;;;;;;;;;;;;;;;;;;;;;666677#*#*###-   ",
"     -#**##&74666;;;;;;;;;;;;;;;;;;;;;;;;;;;;;;;;;;;;66667#*#*#*##-   ",
"     -*##*#776666;;;;;;;;;;;;;;;;;;;;;;;;;;;;;;;;;;;;66667#**#*##-    ",
"    -##*-#-#36666;;;;;;;;;;;;;;;;;;;;;;;;;;;;;;;;;;;666637-##*#*#-    ",
"    -##*#*#*36666;;;;;;;;;;;;;;;;;;;;;;;;;;;;;;;;;;;66663&#-#**#-     ",
"    -###-#-#36666;;;;;;;;;;;;;;;;;;;;;;;;;;;;;;;;;;66665&&*#*#*#-     ",
"    -####*#*36666;;;;;;;;;;;;;;;;;;;;;;;;;;;;;;;;;66665-7&#-#*#-      ",
"    -##**#-#77666;;;;;;;;;;;;;;;;;;;;;;;;;;;;;;;666667-7-#*#*#-       ",
"    *####*#*777666;;;;;;;;;;;;;;;;;;;;;;;;;;;;666666777#&-#-*-        ",
"    -##**#*##77666;;;;;;;;;;;;;;;;;;;;;;;;;;;66677377*-&&#*#--        ",
"    -####*#*#36666;;;;;;;;;;;;;;;;;;;;;;;;;666667.7-*-*&#*#-          ",
"     -##*#*#-736666;;;;;;;;;;;;;;;;;;;;;;;66661OO#*---&&---           ",
"     -###*#*#*776666;;;;;;;;;;;;;;;;;;;;;6666:.O*#-*-#---             ",
"     -####*#-#7766666;;;;;;;;;;;;;;;;;;;66661..*#-*-&-                ",
"      -###*O#*73:66666;;;;;;;;;;;;;;;;;66661OO*#*-*--                 ",
"      -####**##73:666666;;;;;;;;;;;;;66666:OO*#--*-                   ",
"       -####*#*#-3366666666666;;6666666661O###-*--                    ",
"       -###*#*#-#&&7776666666666666666661**#*--*-                     ",
"        -###**#*-#*#3766666666666666661****--*--                      ",
"         -####*##*#-#&777766666666333*#-*-*-*--                       ",
"         -#####**#*#-#&&&7-7-55*------*-*--*&-                        ",
"          -*##*##-#-#*-#&&#-*-*-*-**-*-*--#--                         ",
"            -####*#*#*#*-#&-&&&&&--*-&&&&&&-                          ",
"             --##**#*#*##*##&&&&-#&&#-&&&*-                           ",
"               --##*#*#**##-#*#-#-#--##*--                            ",
"                 --#*#*##-*#-#*#*#*##---                              ",
"                   ------*#-*#-------                                 ",
"                         ------                                       ",
"                                                                      ",
"                                                                      ",
"                                                                      ",
"                                                                      ",
"                                                                      ",
"                                                                      ",
"                                                                      ",
"                                                                      "
};
