/* XPM */
static char *ile2[] = {
/* columns rows colors chars-per-pixel */
"70 70 19 1 ",
"  c #2AC4EA",
". c #4FCEEE",
"X c #50CFEE",
"o c #51CFEE",
"O c #52CEEE",
"+ c #52CFEE",
"@ c #53CFEE",
"# c #54CFEE",
"$ c #54D0EE",
"% c #55D0EE",
"& c #F3D9BA",
"* c #A6E7F7",
"= c #A7E7F7",
"- c #A8E7F7",
"; c #A9E7F7",
": c #AAE7F7",
"> c #AAE8F7",
", c #F9EBDA",
"< c white",
/* pixels */
"                                                                      ",
"                                                                      ",
"                                                                      ",
"                                                                      ",
"                                                                      ",
"                                                                      ",
"                         ########%##%                                 ",
"                       ##@@@@@@@@@@@####                              ",
"                      #@OOOOOO@@@OOOOOOO@                             ",
"                    ##OOOOOOO@.@@@OOOOOO@@#                           ",
"                   #@@OOOOOOOO@.O@OO@OOOOO@#                          ",
"                  #O@@OOOOO.@@$.@.@@@.@@@@@@%                         ",
"                 #@OOO@@O@.@@@@@@@@@@@@@@.@@.#                        ",
"                 #@OOOO.@@@@@@@@<<@@@@@@@@@@@#                        ",
"                @@OOOO@@@@@=;;;;=;;;;<@@@@@@@@#                       ",
"               %OOO@.@@@@;=,,,,,,,,,,<<<@@@@@@%                       ",
"               @@@@.@@@@<<,,,,,,,,,,,,,;;#<@@@@%                      ",
"              @@@@@@@@<<<<,,,,,,,,,,,,,,,;<<@@@%                      ",
"              %@.@.@@@<,,,,,,,&&&&&&,,,,,,;###@%                      ",
"              %@@@@@<<,,,,,,&&&&&&&&&&,,,,,<<##@%                     ",
"              $@@@@@@=,,,,&&&&&&&&&&&&&&,,,<<$@#%                     ",
"              %@@@@@<,,,,&&&&&&&&&&&&&&&&,,,<$%@%                     ",
"              %@@@@@<,,,&&&&&&&&&&&&&&&&&&,,<%$$#%                    ",
"              %@@@@;,,,&&&&&&&&&&&&&&&&&&&,,<<$$%#%                   ",
"              %@@@@<,,,&&&&&&&&&&&&&&&&&&&&,<<@$$$%                   ",
"              %@@@@<,,&&&&&&&&&&&&&&&&&&&&&,,<@$%$$%                  ",
"              %@###;,,&&&&&&&&&&&&&&&&&&&&&,,,..@%$$%                 ",
"              %@###;,,&&&&&&&&&&&&&&&&&&&&&,,,=.@$$%@%                ",
"              %@##$>,,&&&&&&&&&&&&&&&&&&&&&&,,,*.@$$$%                ",
"              %@##$<,,&&&&&&&&&&&&&&&&&&&&&&&,,,.$$$%#%               ",
"              %##%$<,,&&&&&&&&&&&&&&&&&&&&&&&&,,,.@$$@#%              ",
"              %###$<,,,&&&&&&&&&&&&&&&&&&&&&&&,,,=@$$%#%              ",
"              %##%<@,,,&&&&&&&&&&&&&&&&&&&&&&&&,,,@%$$@#%             ",
"              %####;,,,&&&&&&&&&&&&&&&&&&&&&&&&,,,=@$$##%             ",
"             %@#%$#;,,&&&&&&&&&&&&&&&&&&&&&&&&&&,,,@%$##%             ",
"             %@#$$#,,,&&&&&&&&&&&&&&&&&&&&&&&&&&,,,;%%##@%            ",
"             %@#$$>,,,&&&&&&&&&&&&&&&&&&&&&&&&&&,,,;%%##@%            ",
"            %@@#$$,,,&&&&&&&&&&&&&&&&&&&&&&&&&&&,,,;%$##@%            ",
"           %@@@#$>,,&&&&&&&&&&&&&&&&&&&&&&&&&&&&,,,;$$@#@%            ",
"           %@@@@@,,,&&&&&&&&&&&&&&&&&&&&&&&&&&&&,,,;$$##@%            ",
"          %@@@@@;,,,&&&&&&&&&&&&&&&&&&&&&&&&&&&&,,,>$$##@%            ",
"          %@@@@@;,,,&&&&&&&&&&&&&&&&&&&&&&&&&&&&,,,>$%#@@%            ",
"          #.@@@@;,,,&&&&&&&&&&&&&&&&&&&&&&&&&&&&,,,>$@#@@%            ",
"         #@@@@@@:,,,&&&&&&&&&&&&&&&&&&&&&&&&&&&&,,,>%##@@%            ",
"         %@@@@@@:,,,&&&&&&&&&&&&&&&&&&&&&&&&&&&,,,,<##@@@%            ",
"         #@@@@@@;,,,&&&&&&&&&&&&&&&&&&&&&&&&&&&,,,>$##@@@%            ",
"         @@@@@#@;,,,,&&&&&&&&&&&&&&&&&&&&&&&&&&,,<<@#@@@@%            ",
"         @@.@@##;,,,,&&&&&&&&&&&&&&&&&&&&&&&&&,,,<%##@@@%             ",
"         %@.O@@@@=,,,,&&&&&&&&&&&&&&&&&&&&&&&,,,,<##@@@@$             ",
"         %@@O@.@@<<<,,,&&&&&&&&&&&&&&&&&&&&&,,,<<@#@@@@@$             ",
"         %@@O@@@@@<<,,,,&&&&&&&&&&&&&&&&&&&,,,,<;#@@@@@%              ",
"          #@O@.@@@<;,,,,,&&&&&&&,&&&&&&&&,,,,,,<#@@@@@@%              ",
"          #@OOO@.@@<<,,,,,,,,,,,,,,,,,,,,,,,,,;#@@@@@@@$              ",
"           #OOO.@@@<<,<,,,,,,,,,,,,,,,,,,,,,,;#@@@@@@@$               ",
"           #OOOOO@@@@;<,,,,,,,,,,,,,,,,<,,<<@<@@@@@@.@$               ",
"            #OOOO.@@@@==<<,,,;<<<<;,,,<<;<<<@@@@@@@@$$                ",
"            ##@@OOO@@.@@@;;=@@@@#####<<#@@@@@@@@@@@@%                 ",
"             #@@OOOO@@@@@@@<<@@@@@@@@@@@@@@@@@@..@.@%                 ",
"              @@OOOOOO@@@@@@@@@@@@@@@@@@@@@@@@.@@@%%                  ",
"               #OOOOOO.O.@@@@@@@@@@@@@@@@@.@@@@@@@                    ",
"                %#@@OO@@@.@@@.@@@@@@@@@.@@@@@@@@@                     ",
"                 #@@OOO@@@.@@@@%@@.@@@@@@@.@@###                      ",
"                  ##OO@@@@@@%%  $%@@@@@.@@##@                         ",
"                    #@#####       %##%##%#                            ",
"                                                                      ",
"                                                                      ",
"                                                                      ",
"                                                                      ",
"                                                                      ",
"                                                                      "
};
