/* XPM */
static char *mechant2[] = {
/* columns rows colors chars-per-pixel */
"70 70 152 2 ",
"   c #010201",
".  c #010202",
"X  c #040000",
"o  c #020304",
"O  c #020205",
"+  c #050305",
"@  c #060306",
"#  c #060307",
"$  c #030308",
"%  c #070308",
"&  c #080309",
"*  c #090309",
"=  c #09020A",
"-  c #0B0224",
";  c #130824",
":  c #130432",
">  c #170739",
",  c #2E0A26",
"<  c #231F20",
"1  c #200C33",
"2  c #221436",
"3  c #663039",
"4  c #1D0846",
"5  c #12014D",
"6  c #1E074B",
"7  c #1A064F",
"8  c #130150",
"9  c #1B015B",
"0  c #210A4B",
"q  c #220A4A",
"w  c #200C4F",
"e  c #2A1944",
"r  c #230A56",
"t  c #2A1153",
"y  c #29145A",
"u  c #31155B",
"i  c #1F016E",
"p  c #3C0C69",
"a  c #2C1166",
"s  c #351A60",
"d  c #3D196E",
"f  c #200170",
"g  c #23017B",
"h  c #351070",
"j  c #362067",
"k  c #551D66",
"l  c #471070",
"z  c #40167F",
"x  c #473475",
"c  c #5B6064",
"v  c #AC1F2C",
"b  c #BA2227",
"n  c #E82C2E",
"m  c #C91E7C",
"M  c #F04D49",
"N  c #E77978",
"B  c #89A83D",
"V  c #F99B1C",
"C  c #EBAD20",
"Z  c #FBAE30",
"A  c #F4E400",
"S  c #E6E01C",
"D  c #2B0186",
"F  c #280188",
"G  c #2D018C",
"H  c #2F0194",
"J  c #3301A0",
"K  c #47158D",
"L  c #491F88",
"P  c #4A1E8A",
"I  c #4B2C86",
"U  c #4E2089",
"Y  c #532391",
"T  c #5D26A6",
"R  c #5E28A7",
"E  c #6722A7",
"W  c #682FAA",
"Q  c #7E26A6",
"!  c #6831AE",
"~  c #703EB3",
"^  c #723BB6",
"/  c #7134B9",
"(  c #7836B8",
")  c #793CBE",
"_  c #0078B2",
"`  c #634798",
"'  c #7944AB",
"]  c #7744B4",
"[  c #7B4FB4",
"{  c #7640B9",
"}  c #7540BD",
"|  c #7943BC",
" . c #7843BD",
".. c #8126A6",
"X. c #814EB2",
"o. c #8A5EBE",
"O. c #E56FA1",
"+. c #9A3ACB",
"@. c #8D48C4",
"#. c #8447CA",
"$. c #8844C8",
"%. c #8F47CA",
"&. c #894ECA",
"*. c #934BCD",
"=. c #994DCF",
"-. c #8752C7",
";. c #8E57C1",
":. c #9B53CF",
">. c #9E57D1",
",. c #9D58DE",
"<. c #A04CD3",
"1. c #A056D4",
"2. c #A357D6",
"3. c #AA5FDB",
"4. c #B158DE",
"5. c #BA59DE",
"6. c #9467C9",
"7. c #9962C8",
"8. c #9F69D9",
"9. c #B86AE7",
"0. c #B86FE6",
"q. c #AE77E0",
"w. c #B27FE1",
"e. c #BD72EB",
"r. c #C05FE5",
"t. c #C372EB",
"y. c #C279E8",
"u. c #CB7FF3",
"i. c #D57FF3",
"p. c #3689C9",
"a. c #5BA6C8",
"s. c #2AC4EA",
"d. c #EB9FBF",
"f. c #E7A8A8",
"g. c #BF82E3",
"h. c #C388EB",
"j. c #CA9EE4",
"k. c #CC93EF",
"l. c #CF9AF0",
"z. c #D295F3",
"x. c #D9A1F5",
"c. c #DEA3F8",
"v. c #DEB2F1",
"b. c #E6B7F9",
"n. c #E8B2FA",
"m. c #ACE5F6",
"M. c #D5D5D2",
"N. c #F2D3FC",
"B. c #F0EEE9",
"V. c #F0EEEA",
"C. c #F0EEEB",
"Z. c #F0EEEC",
/* pixels */
"s.s.s.s.s.s.s.s.s.s.s.s.s.s.s.s.s.s.s.s.s.s.s.s.s.s.s.s.s.s.s.s.s.s.s.s.s.s.s.s.s.s.s.s.s.s.s.s.s.s.s.s.s.s.s.s.s.s.s.s.s.s.s.s.s.s.s.s.s.s.",
"s.s.s.s.s.s.s.s.s.s.s.s.s.s.s.s.s.s.s.s.s.s.s.s.s.s.s.s.s.s.s.s.s.s.s.s.s.s.s.s.s.s.s.s.s.s.s.s.s.s.s.s.s.s.s.s.s.s.s.s.s.s.s.s.s.s.s.s.s.s.",
"s.s.s.s.s.s.s.s.s.s.s.s.s.s.s.s.s.s.s.s.s.s.s.s.s.s.s.s.s.s.s.s.s.s.s.s.s.s.s.s.s.s.s.s.s.s.s.s.s.s.s.s.s.s.s.s.s.s.s.s.s.s.s.s.s.s.s.s.s.s.",
"s.s.s.s.s.s.s.s.s.s.s.s.s.s.s.s.s.s.s.s.s.s.s.s.s.s.s.s.s.s.s.s.s.s.s.s.s.s.s.s.s.s.s.s.s.s.s.s.s.s.s.s.s.s.s.s.s.s.s.s.s.s.s.s.s.s.s.s.s.s.",
"s.s.s.s.s.s.s.s.s.s.s.s.s.s.s.s.s.s.s.s.s.s.s.s.s.s.s.s.s.s.s.s.s.s.s.s.s.s.s.s.s.s.s.s.s.j j j j j x s.s.s.s.s.s.s.s.s.s.s.s.s.s.s.s.s.s.s.",
"s.s.s.s.s.s.s.s.s.s.s.s.s.s.s.s.s.s.s.s.s.s.s.s.s.s.s.s.s.s.s.s.s.s.s.s.s.s.s.s.s.s.x j j j ( ( j j s.s.s.s.s.s.s.s.s.s.s.s.s.s.s.s.s.s.s.s.",
"s.s.s.s.s.s.s.s.s.s.s.s.s.s.s.s.s.s.s.s.s.s.s.s.s.s.s.s.s.s.s.s.s.s.s.s.s.s.s.s.j j l.l.>.( ( a j x s.s.s.s.s.s.s.s.s.s.s.s.s.s.s.s.s.s.s.s.",
"s.s.s.s.s.s.s.s.s.s.s.s.s.s.s.s.s.s.s.s.s.s.s.s.s.s.s.s.s.s.s.s.s.s.s.s.s.s.x j l.l.n.y.( K a 7 j s.s.s.s.s.s.s.s.s.s.s.s.s.s.s.s.s.s.s.s.s.",
"s.s.s.s.s.s.s.s.s.s.s.s.s.s.s.s.s.s.s.s.s.s.s.s.s.s.s.s.s.s.s.s.s.s.s.s.s.j l.l.n.y.y.( K a a w s.s.s.s.s.s.s.s.s.s.s.s.s.s.s.s.s.s.s.s.s.s.",
"s.s.s.s.s.s.s.s.s.s.s.s.s.s.s.s.s.s.s.s.s.s.s.s.s.s.s.s.s.s.s.s.s.s.s.j w.l.n.n.y.y.( K a a w w s.s.s.s.s.s.s.s.s.s.s.s.s.s.s.s.s.s.s.s.s.s.",
"s.s.s.s.s.s.s.s.s.s.s.s.s.s.s.s.s.s.s.s.s.s.s.s.s.s.s.s.s.s.s.s.s.s.j l.c.n.y.y.y.( ( a k.( w s.s.s.s.s.s.s.s.s.s.s.s.s.s.s.s.s.s.s.s.s.s.s.",
"s.s.s.s.s.s.s.s.s.s.s.s.s.s.s.s.s.s.s.s.s.s.s.s.s.s.s.s.s.s.s.s.s.j l.c.n.y.y.y.>.( K k.z.w w s.s.s.s.s.s.s.s.s.s.s.s.s.s.s.s.s.s.s.s.s.s.s.",
"s.s.s.s.s.s.s.s.s.s.s.s.s.s.s.s.s.s.s.s.s.s.s.s.s.B S B s.s.s.s.j l.n.n.y.y.y.>.( K a k.c.w w s.s.s.s.s.s.s.s.s.s.s.s.s.s.s.s.s.s.s.s.s.s.s.",
"s.s.s.s.s.s.s.s.s.s.s.s.s.s.s.s.s.s.s.s.s.s.s.s.s.S S s.s.s.I y h.n.n.y.y.y.>.( ( a k.c.K w s.s.s.s.s.s.s.s.s.s.s.s.s.s.s.s.s.s.s.s.s.s.s.s.",
"s.s.s.s.s.s.s.s.s.s.s.s.s.s.s.s.s.s.s.C C s.s.s.s.S B s.s.I y h.n.y.y.y.y.y.>.( K q.z.n.w w s.s.s.s.s.s.s.s.s.s.s.s.s.s.s.s.s.s.s.s.s.s.s.s.",
"s.s.s.s.s.s.s.s.s.s.s.s.s.s.s.s.s.s.s.C C s.s.s.s.s.s.s.I y h.N.y.y.y.y.y.>.( ( a k.n.3.w w s.s.s.s.s.s.s.s.s.s.s.s.s.s.s.s.s.s.s.s.s.s.s.s.",
"s.s.s.s.s.s.s.s.s.s.s.s.s.s.s.s.s.s.s.A A s.s.s.s.s.s.;.' h.c.N.y.y.y.y.>.( ( K q.z.n.( w s.s.s.s.s.s.s.s.s.s.s.s.s.s.s.s.s.s.s.s.s.s.s.s.s.",
"s.s.s.s.s.s.s.s.s.s.s.s.s.s.s.s.s.s.s.s.s.s.s.s.s.` ;.' x.c.n.v.y.y.y.y.>.( ( a k.n.y.( w s.s.s.s.s.s.s.s.s.s.s.s.s.s.s.s.s.s.s.s.s.s.s.s.s.",
"s.s.s.s.s.s.s.s.s.s.s.s.s.s.s.s.s.s.s.s.s.s.s.s.s.;.;.' b.n.v.v.v.y.y.>.>.( K a z.n.y.K w s.s.s.s.s.s.s.s.s.s.s.s.s.s.s.s.s.s.s.s.s.s.s.s.s.",
"s.s.s.s.s.< s.s.< s.s.s.s.s.s.s.s.s.s.s.s.s.s.s.s.;.' h.N.y.v.v.y.y.y.>.( ( a k.n.y.3.K w s.s.s.s.s.s.s.s.s.s.s.s.s.s.s.s.s.s.s.s.s.s.s.s.s.",
"s.s.s.< < < < < < s.s.s.s.s.s.s.s.s.s.s.s.s.s.f.f.y h.c.N.v.y.y.v.v.>.>.( K a z.n.y.( w w s.s.s.s.s.s.s.s.s.s.s.s.s.s.s.s.s.s.s.s.s.s.s.s.s.",
"s.s.s.s.< s.s.s.s.s.s.s.s.s.s.s.s.s.s.s.s.s.s.N f.7.b.n.v.v.y.y.y.y.>.( ( a a c.y.y.( w w s.s.s.s.s.s.s.s.s.s.s.s.s.s.s.s.s.s.s.s.s.s.s.s.s.",
"s.s.s.< < s.M.M.s.< < s.s.s.s.s.s.s.s.s.s.s.s.s.j b.N.y.v.v.y.y.v.y.>.( ( a k.n.y.y.( w w s.s.s.s.s.s.s.s.s.s.s.s.s.s.s.s.s.s.s.s.s.s.s.s.s.",
"s.s.s.s.s.s.c c s.s.s.s.s.s.s.s.s.s.s.s.s.s.s.j j b.N.y.v.v.y.y.v.>.>.( K a c.n.y.y.( K w s.s.s.s.s.s.s.s.s.s.s.s.s.s.s.s.s.s.s.s.s.s.s.s.s.",
"s.s.s.s.s.< M.c < s.s.s.s.s.s.s.s.s.m m m s.s.j X.N.y.v.y.v.v.y.y.>.( ( a a c.n.y.y.( K w s.s.s.s.s.s.s.s.s.s.s.s.s.s.s.s.s.s.s.s.s.s.s.s.s.",
"s.s.s.s.< < M.c s.s.s.s.s.s.s.s.s.s.m m m s.x j b.n.y.v.y.v.v.y.y.>.( ( a a n.y.y.y.( K w s.s.s.s.s.s.s.s.s.s.s.s.s.s.s.s.s.s.s.s.s.s.s.s.s.",
"s.s.s.s.s.s.M.c s.s.s.s.s.s.s.s.s.s.s.d.m s.j j N.v.y.y.y.y.y.y.>.>.( ( a ( n.y.y.>.( K w w s.s.s.s.s.s.s.s.s.s.s.s.s.s.s.s.s.s.s.s.s.s.s.s.",
"s.s.s.s.s.s.M.c s.s.s.s.s.s.s.s.s.s.s.d.O.s.j ( N.v.y.y.y.y.v.y.>.( ( K a ( y.3.( K a w w w s.s.s.s.s.s.s.s.s.s.s.s.s.s.s.s.s.s.s.s.s.s.s.s.",
"s.s.s.s.s.s.M.c s.s.s.s.s.s.s.s.s.s.s.s.s.j j >.y.v.v.y.y.v.v.>.>.( 7.K a ( K a a a a s.s.s.s.s.s.s.s.s.s.s.s.s.s.s.s.s.s.s.s.s.s.s.s.s.s.s.",
"s.s.s.s.s.s.M.c s.X X X X X X X X X X X x I I : ( g.v.y.y.v.j.>.>.( 7.K a a a a a w s.s.s.s.s.s.s.s.s.s.s.s.s.s.s.s.s.s.s.s.s.s.s.s.s.s.s.s.",
"s.s.s.s.s.s.M.v v v v v v v v v v v v v j j : : : &.&.,.>.j.>.>.>.( ( ( a a a K w s.s.s.s.s.s.s.s.s.s.s.s.s.s.s.s.s.s.s.s.s.s.s.s.s.s.s.s.s.",
"s.s.s.s.s.s.v v M M M M M M M M M M M M M U U U U U U U &.>.>.j.>.( ( K a K K K w s.s.s.s.s.s.s.s.s.s.s.s.s.s.s.s.s.s.s.s.s.s.s.s.s.s.s.s.s.",
"s.s.s.s.s.s.v M _ m.m.m.m.m.m.m.m.m.m.m.U U 2 U d 2 2 U U ( >.>.>.( ( K K K K K a s.s.s.s.s.s.s.s.s.s.s.s.s.s.s.s.s.s.s.s.s.s.s.s.s.s.s.s.s.",
"s.s.s.s.s.c v M m.m.m.m.m.m.m.m.m.m.m.m.2   V.2 2     ; U : ( ( >.( ( ( ( K K K a a x s.s.s.s.s.s.s.s.s.s.s.s.s.s.s.s.s.s.s.s.s.s.s.s.s.s.s.",
"s.s.s.s.X c v M a.a.a.a.a.a.a.a.a.a.a.a.2 Z.V.2 $ V.V.O U : : : ( ( 7.( ( K K K a a w s.s.s.s.s.s.s.s.s.s.s.s.s.s.s.s.s.s.s.s.s.s.s.s.s.s.s.",
"s.s.s.s.X c v M n b Z Z Z Z Z V V V V b 8 * # 2 Z.V.@ @ e h : : : d 7.( ( ( ( K w w w s.s.s.s.s.s.s.s.s.s.s.s.s.s.s.s.s.s.s.s.s.s.s.s.s.s.s.",
"s.s.s.s.s.c v M n Z Z Z Z V V V V V V V F i * 2 5 * $ * e T T h : : : : : : : w w s.s.s.s.s.s.s.s.s.s.s.s.s.s.s.s.s.s.s.s.s.s.s.s.s.s.s.s.s.",
"s.s.s.s.s.X v M n Z Z Z V V V V V V V V 2 J G 2 g f * 9 , T T T T h h 6 6 : : s.s.s.s.s.s.s.s.s.s.s.s.s.s.s.s.s.s.s.s.s.s.s.s.s.s.s.s.s.s.s.",
"s.s.s.k 2.X v M n Z Z V V V V V V V V V 6.o.2 2 2 J H D h T T T T T h h 6 : s.s.s.s.s.s.s.s.s.s.s.s.s.s.s.s.s.s.s.s.s.s.s.s.s.s.s.s.s.s.s.s.",
"s.s.9.2.2.X v M n Z Z Z V V V V V V V V q t R h 2 2 8.3 [ T T T Q Q T h : : s.s.s.s.s.s.d d s.s.s.s.s.s.s.s.s.s.s.s.s.s.s.s.s.s.s.s.s.s.s.s.",
"s.k 2.5.z s.v M n Z Z Z Z V V V V V V q | | T T { ^ -.s ! T T T T T T h : q s.q 0.0.0.0.0.0.0.0.0.s.s.s.s.s.s.s.s.s.s.s.s.s.s.s.s.s.s.s.s.s.",
"s.9.2.z s.s.v v M b Z Z Z V V V V V V q | | ,.T T #.| q T Q T T T T T h : : | t.t.u.#.#.h #.#.u.0.0.s.s.s.s.s.s.s.s.s.s.s.s.s.s.s.s.s.s.s.s.",
"s.5.5.z s.s.v v v v v v v v v v v v d | Q | | ] ] ] 1 T T T T T T T Q h T T T l l q q q q q q h 4.t.q s.s.s.s.s.s.s.s.s.s.s.s.s.s.s.s.s.s.s.",
"s.9.9.2.Y ) ) ) ) ) T s.s.s.s.s.=.=.| | T T h 1 : 1 } T T T T T T h Q q q q q q q q d L u d q q l 4.%.d s.s.s.s.s.s.s.q q d s.s.s.s.s.s.s.s.",
"s.T ) 9.) ) Q Q z Y T s.s.s.s.=.*.K | ,.0.T q T ~ ~ } T Q q T T T q q h T | 0.0.0.0.0.0.r / :.q q l l q s.s.s.s.s.q l q l l l l s.s.s.s.s.s.",
"s.k T T Q z z z z z T s.s.s.=.=.5...0.,.0.T q q | | 0 T T q q T Q l q q q q q q q #.e.0.0.q *.:.q l h | 0.d s.| 0.| d d d d l l l s.s.s.s.s.",
"s.s.k z z z z z z Q Q < s.s.=.5.Q d 0.,.9.h.q q h Q T T Q q q q h l q q q q q q q q q #.0.0.> :.:.q q ,.t.0.0.t.t.&.d d d d d l l l s.s.s.s.",
"s.s.s.s.k k k s.z Q Q z s.=.=.Q Y q 9.,.e.0.Q q q h T T Q T h q q | 0.0.e.u.e.0.0.0.q q | 0.0.*.:.s.q q #.4.4.#.q d s.s.s.s.d d Q l q s.s.s.",
"s.s.s.s.s.s.s.s.z ) z z z =.2.) z q 0.,.h 0.u.T q q q q h h T T h h h l h h h #.i.u.0.0.q #.0.q 1.W s.q q q q q q s.s.s.s.s.s.d l Q l l l s.",
"s.s.s.s.s.s.s.s.z ) Y z =.2.) ) z d 0.,.T 0.0.u.T l q q q | | | q q q q q q q q q h 4.0.0.q 0.0.@.1.d s.d d d d Q Q s.s.s.s.s.d l Q Q l l l ",
"s.s.s.s.s.s.s.s.T ) Q Y Y ) ) z ....9.h.,.h 0.0.0.,.T Q Q Q ,.#.e.e.e.e.0.0.0.q q q l #.0.0.#.0.L r.1.1.+.p p p p p p s.s.s.s.s.d d d d d s.",
"s.s.s.s.s.s.s.s.T T Q ) ) p.Q z z z 0.e.,.Q Q q q | q q q q h h h h h #.,.u.0.0.| q q q #.0.| 0.| p E E p p p u u p d s.s.s.s.s.s.d d d s.s.",
"s.s.s.s.s.s.s.s.s.T z z z z z z K k 4 0.u.,.T h q q > L q q q q q q q q h h #.u.0.| d q l %.| | | q > p p d d s.s.s.s.s.s.s.s.s.s.s.s.s.s.s.",
"s.s.s.s.s.s.s.s.s.s.z z z z z z s.s.s.0.0.u.,.,.h q q q L r > > > u > q q q q #.u.0.q q q h q q l l l l l l l l l s.s.s.s.s.s.s.s.s.s.s.s.s.",
"s.s.s.s.s.s.s.s.s.s.s.k k k k s.s.s.s.s.| 0.e.u.,.4.h q q q q d > p - > r d q q #.e.0.> q q Q q q l l l l l l l l s.s.s.s.s.s.s.s.s.s.s.s.s.",
"s.s.s.s.s.s.s.s.s.s.s.s.s.s.s.s.s.s.s.s.s.q 0.0.e.u.,.,.,.T h q q q q q > r Q q q u.0.q d q l l q q d d l l q s.s.s.s.s.s.s.s.s.s.s.s.s.s.s.",
"s.s.s.s.s.s.s.s.s.s.s.s.s.s.s.s.s.s.s.s.s.s.s.q | 0.0.| | | | q h h h l q q d p q #.t.| p q q l l q q l l l l l l s.s.s.s.s.s.s.s.s.s.s.s.s.",
"s.s.s.s.s.s.s.s.s.s.s.s.s.s.s.s.s.s.s.s.s.s.s.s.s.s.s.s.s.s.d q q q q q l l l l q l t.0.p @.q l l l l l l l l l l s.s.s.s.s.s.s.s.s.s.s.s.s.",
"s.s.s.s.s.s.s.s.s.s.s.s.s.s.s.s.s.s.s.s.s.s.s.s.s.s.s.s.s.s.s.s.s.Q p q l l l l q l 4.0.q E r.q l l l l s.s.s.l l s.s.s.s.s.s.s.s.s.s.s.s.s.",
"s.s.s.s.s.s.s.s.s.s.s.s.s.s.s.s.s.s.s.s.s.s.s.s.s.s.s.s.s.s.s.s...4.p > s.q l l l l l t.%.Q <.<.r.1.p d s.s.s.s.s.s.s.s.s.s.s.s.s.s.s.s.s.s.",
"s.s.s.s.s.s.s.s.s.s.s.s.s.s.s.s.s.s.s.s.s.s.s.s.s.s.s.s.s.s.s.s.4.4.p > s.s.l l l q q l %.l l l l l l l l s.s.s.s.s.s.s.s.s.s.s.s.s.s.s.s.s.",
"s.s.s.s.s.s.s.s.s.s.s.s.s.s.s.s.s.s.s.s.s.s.s.s.s.s.s.s.s.s.s.s.4.$.p s.s.s.l l l 4 q l l Q Q Q l l l l l l d s.s.s.s.s.s.s.s.s.s.s.s.s.s.s.",
"s.s.s.s.s.s.s.s.s.s.s.s.s.s.s.s.s.s.s.s.s.s.s.s.s.s.s.s.s.s.s.s.4.$.p s.s.s.l l l p $.d q l l l l l l l l l l s.s.s.s.s.s.s.s.s.s.s.s.s.s.s.",
"s.s.s.s.s.s.s.s.s.s.s.s.s.s.s.s.s.s.s.s.s.s.s.s.s.s.s.s.s.s.s.s.4.$.p s.s.l l l s.p 4.4.s.s.s.s.s.s.s.p p l l s.s.s.s.s.s.s.s.s.s.s.s.s.s.s.",
"s.s.s.s.s.s.s.s.s.s.s.s.s.s.s.s.s.s.s.s.s.s.s.s.s.s.s.s.s.s.s.s.s.4.$.s.s.s.l s.s.p $.4.s.s.s.s.s.s.s.p Q l l s.s.s.s.s.s.s.s.s.s.s.s.s.s.s.",
"s.s.s.s.s.s.s.s.s.s.s.s.s.s.s.s.s.s.s.s.s.s.s.s.s.s.s.s.s.s.s.s.s.s.p u s.s.s.s.s.p $.$.Q s.s.s.s.s.s.p Q s.s.s.s.s.s.s.s.s.s.s.s.s.s.s.s.s.",
"s.s.s.s.s.s.s.s.s.s.s.s.s.s.s.s.s.s.s.s.s.s.s.s.s.s.s.s.s.s.s.s.s.s.s.s.s.s.s.s.s.s.p p p s.s.s.s.s.s.s.s.s.s.s.s.s.s.s.s.s.s.s.s.s.s.s.s.s.",
"s.s.s.s.s.s.s.s.s.s.s.s.s.s.s.s.s.s.s.s.s.s.s.s.s.s.s.s.s.s.s.s.s.s.s.s.s.s.s.s.s.s.s.s.s.s.s.s.s.s.s.s.s.s.s.s.s.s.s.s.s.s.s.s.s.s.s.s.s.s.",
"s.s.s.s.s.s.s.s.s.s.s.s.s.s.s.s.s.s.s.s.s.s.s.s.s.s.s.s.s.s.s.s.s.s.s.s.s.s.s.s.s.s.s.s.s.s.s.s.s.s.s.s.s.s.s.s.s.s.s.s.s.s.s.s.s.s.s.s.s.s.",
"s.s.s.s.s.s.s.s.s.s.s.s.s.s.s.s.s.s.s.s.s.s.s.s.s.s.s.s.s.s.s.s.s.s.s.s.s.s.s.s.s.s.s.s.s.s.s.s.s.s.s.s.s.s.s.s.s.s.s.s.s.s.s.s.s.s.s.s.s.s."
};
