/* XPM */
static char *mechant[] = {
/* columns rows colors chars-per-pixel */
"70 70 113 2 ",
"   c black",
".  c #3D0B20",
"X  c #5C0016",
"o  c #7B001B",
"O  c #7B7C23",
"+  c #890613",
"@  c #84001D",
"#  c #9E001A",
"$  c #82111E",
"%  c #991322",
"&  c #9F1727",
"*  c #A7182C",
"=  c #BB1B2C",
"-  c #9C2434",
";  c #B02238",
":  c #E01B2C",
">  c #E31B2D",
",  c #C0273B",
"<  c #E4283D",
"1  c #E9293D",
"2  c #BF3144",
"3  c #A83F51",
"4  c #C62A41",
"5  c #C22A44",
"6  c #C33349",
"7  c #C9344E",
"8  c #E92A40",
"9  c #E92A41",
"0  c #EA2B42",
"q  c #E6344C",
"w  c #F03F57",
"e  c #D45845",
"r  c #DA4658",
"t  c #E3435D",
"y  c #E7465F",
"u  c #F0445C",
"i  c #C26B5A",
"p  c #F86D51",
"a  c #CF4E6C",
"s  c #D44A61",
"d  c #DD5567",
"f  c #CF5470",
"g  c #CF5571",
"h  c #CF5772",
"j  c #CF5872",
"k  c #E94762",
"l  c #EA4964",
"z  c #EC4A66",
"x  c #F04D6A",
"c  c #F14D6B",
"v  c #E2536C",
"b  c #F4526C",
"n  c #D5697B",
"m  c #AE9E2A",
"M  c #F6CA33",
"N  c #004F86",
"B  c #005385",
"V  c #28698B",
"C  c #0065A2",
"Z  c #D66881",
"A  c #F86481",
"S  c #F46A82",
"D  c #F46F84",
"F  c #F26F88",
"G  c #E77794",
"H  c #E57B94",
"J  c #E57E96",
"K  c #FB7592",
"L  c #FE7094",
"P  c #FB7E9B",
"I  c #5385A7",
"U  c #0081C4",
"Y  c #76A9CA",
"T  c #2AC4EA",
"R  c #E5849A",
"E  c #E5869B",
"W  c #E5889C",
"Q  c #E58B9F",
"!  c #E58C9F",
"~  c #E590A1",
"^  c #E593A4",
"/  c #E792A5",
"(  c #E594A4",
")  c #E595A5",
"_  c #E39FA8",
"`  c #E59DA9",
"'  c #E79EAC",
"]  c #FF99B6",
"[  c #EDA9B7",
"{  c #ECAAB6",
"}  c #FAA3BB",
"|  c #FDA2B9",
" . c #FAA4BC",
".. c #FAA5BC",
"X. c #FAA7BD",
"o. c #FDA7BE",
"O. c #FAA8BE",
"+. c #FAAABF",
"@. c #FBE69F",
"#. c #87B7D3",
"$. c #FAADC1",
"%. c #FAB2C4",
"&. c #FAB7C7",
"*. c #F9BBC8",
"=. c #FABBC8",
"-. c #FABAC9",
";. c #F9BCC8",
":. c #87C4E3",
">. c #A7D7F4",
",. c #C5D3D6",
"<. c #FFCEDE",
"1. c #D6ECFA",
"2. c white",
/* pixels */
"T T T T T T T T T T T T T T T T T T T T T T T T T T T T T T T T T T T T T T T T T T T T T T T T T T T T T T T T T T T T T T T T T T T T T T ",
"T T T T T T T T T T T T T T T T T T T T T T T T T T T T T T T T T T T T T T T T T T T T T T T T T T T T T T T T T T T T T T T T T T T T T T ",
"T T T T T T T T T T T T T T T T T T T T T T T T T T T T T T T T T T T T T T T T T T T T T T T T T T T T T T T T T T T T T T T T T T T T T T ",
"T T T T T T T T T T T T T T T T T T T T T T T T T T T T T T T T T T T 6 ' ' ' T T T T T T T T T T T T T T T T T T T T T T T T T T T T T T T ",
"T T T T T T T T T T T T T T T T T T T T T T T T T T T T T T T T T T 6 ' ' <.' 6 T T T T T T T T T T T T T T T T T T T T T T T T T T T T T T ",
"T T T T T T T T T T T T T T T T T T T T T T T T T T T T T T T T T T ' ' <.] v 6 T T T T T T T T T T T T T T T T T T T T T T T T T T T T T T ",
"T T T T T T T T T T T T T T T T T T T T T T T T T T T T T T U T 6 6 ' <.] ] ] , 6 T T T T T T T T T T T T T T T T T T T T T T T T T T T T T ",
"T T T T T T T T T T T T T T T T T T T T T T T T C C C C C C C C C ' <.<.] ] ] t 6 6 T T T T T T T T T T T T T T T T T T T T T T T T T T T T ",
"T T T T T T T T T T T T T T T T T T T T T T T C #.#.#.C C C B B ' ' <.] ] ] ] y 6 6 T T T T T T T T T T T T T T T T T T T T T T T T T T T T ",
"T T T T T T T T T T T T T T T T T T T T T T C #.1.1.>.Y Y B B 6 ' <.] ] ] ] ] k , N N T T T T T T T T T T T T T T T T T T T T T T T T T T T ",
"T T T T T T T T T T T T T T T T T T T T T C #.:.:.U U Y B B B ' ' <.] ] ] P P z , N N N T T T T T T T T T T T T T T T T T T T T T T T T T T ",
"T T T T T T T T T T T T T T T T T T T T T C :.:.@.U U C B B 6 ' <.] ] ] ] P P K , 6 N N N N T T T T T T T T T T T T T T T T T T T T T T T T ",
"T T T T T T T T T T T T T T T T T T T T T C @.@.M M M C B B ' ' <.] ] ] ] ] ] ] , 6 N N I N N T T T T T T T T T T T T T T T T T T T T T T T ",
"T T T T T T T T T T T T T T T T T T T T T U @.@.@.M M m B B ' <.] ] ] ] ] ] ] ] , 6 N I N N N N T T T T T T T T T T T T T T T T T T T T T T ",
"T T T T T T T T T T T T T T T T T T T T T U @.@.@.M U C B B d <.] ] ] P ] ] ] ] c = N N N O O N N T T T T T T T T T T T T T T T T T T T T T ",
"T T T T T T T T T T T T T T T T T T T T T U :.@.:.:.U Y C B U b ] ] P P ] ] ] P 8 = N N O O O O N N T T T T T T T T T T T T T T T T T T T T ",
"T T T T T T T T T T T T T T T T T T T T T T U :.:.:.1.>.Y C C b b ] ] P ] ] ] u 8 = N N N C O O O N T T T T T T T T T T T T T T T T T T T T ",
"T T T T T T T T T T T T T T T T T T T T T T U U :.1.1.1.>.C C C C b b b b b b b 8 U N N Y C C N O N N T T T T T T T T T T T T T T T T T T T ",
"T T T T T T T T T T T T T T T T T T T T T T T U U 1.1.1.:.U m m C C C U b b b u U C N Y Y Y Y C N N N T T T T T T T T T T T T T T T T T T T ",
"T T T T T T T T T T T T T T T T T T T T T T T T U U :.:.:.@.M m C C C C C C C C C C Y Y Y Y Y Y N O N T T T T T T T T T T T T T T T T T T T ",
"T T T T T T T T T T T T T T T T T T T T T T T T T U U :.:.@.@.@.U >.Y Y C C m m m C C Y Y Y Y Y N N N T T T T T T T T T T T T T T T T T T T ",
"T T T T T T T T T T T T T T T T T T T T T T T T T T T U U :.@.@.:.1.>.>.U U M M M U C Y Y Y Y I N N T T T T T T T T T T T T T T T T T T T T ",
"T T T T T T T T T T T T T T T T T T T T T T T T T T T = d U U U :.1.1.>.U M M M M m C Y Y Y I I N N T T T T T T T T T T T T T T T T T T T T ",
"T T T T T T T T T T T T T T T T T T T T T T T T T T 6 = d D b U C C C Y C m m m m m C Y Y I N N N T T T T T T T T T T T T T T T T T T T T T ",
"T T T T T T T T T T T T T T T T T T T T T T T T T T 6 = d u b b b u C C C C C C C C N N N N N T T T T T T T T T T T T T T T T T T T T T T T ",
"T T T T T T T T T T T T T T T T T T T T T T T T T T 6 = r u b A ] P ] ] w w 1 > U U V T T T T T T T T T T T T T T T T T T T T T T T T T T T ",
"T T T T T T T T T T T T T T T T T T T T T T T T T T T = d P ] A ,.] ] , 4 4 8 : q = T T T T T T T T T T T T T T T T T T T T T T T T T T T T ",
"T T T T T T T T T T T T T T T T T T T T T T T T T T T = ' ] ] 2.2.2.2.2.2.2.c < = = T T T T T T T T T T 2 2 T T T T T T T T T T T T T T T T ",
"T T T T T T T T T T T T T T 2 2 2 T T T T T T T T T T 6 ' <.2.. 2.2.2.2.2.. 4 l = 6 T T T T T T T 2 H R H H 2 2 T T T T T T T T T T T T T T ",
"T T T T T T T T T T T T 2 2 H H ! ( 2 T T T T T T T T 6 6 L .   2.4 . 2.2.o 4 , 6 T T T T T T T 2 H ( [ s s 2 2 T T T T T 2 2 2 2 T T T T T ",
"T T T T 2 2 T T T T T 2 2 2 s s [ _ W 2 T T T T T T T T 6 n . @   4 X @   # 4 | 6 T T T T T T T 2 H ! 2 2 2 s 2 2 T T T 2 2 2 2 2 2 T T T T ",
"T T 2 2 2 2 2 T T T T 2 2 s 2 2 2 2 H 2 T T T T T T T T 2 6 . @ e . . @ p . o.o.6 T T T T T T 2 2 2 2 2 2 2 2 s 2 2 T T 2 2 2 2 2 2 2 T T T ",
"T T 2 2 2 2 2 2 T T T 2 s 2 2 2 S 2 2 2 2 T T T T T T T 2 2 * . . 4 4 . . 4 2 2 T T T T T T T 2 2 2 2 T S 2 2 2 2 2 T T 2 2 2 T 2 2 2 T T T ",
"T 2 2 2 2 2 2 2 T T 2 2 2 2 S S T S 2 2 2 T T T T T T 2 2 2 7 * * 2 F & & F 2 2 2 T T T T T 2 2 2 2 S T T S 2 2 s 2 2 T T T T 2 2 2 2 T T T ",
"T 2 2 2 T 2 2 T T 2 2 s 2 2 S T T S S 2 2 2 2 T T T T 2 2 2 7 7 7 2 2 2 } F 2 2 2 T T T T 2 2 2 2 S S T T T T 2 2 2 2 2 T T 2 2 2 2 2 T T T ",
"T 2 2 2 2 T T T 2 2 2 2 2 S T T T T S 2 2 2 2 2 2 2 2 2 2 2 F 7 2 2 2 2 H } 2 2 2 2 2 2 2 2 2 2 2 S T T T T T S 2 2 2 2 2 2 2 2 2 2 T T T T ",
"T T 2 2 2 2 2 2 2 2 2 2 S T T T T T S 2 2 s s 2 2 2 s 2 2 2 7 7 2 2 2 2 H } F 2 2 ; s s s s 2 2 2 S T T T T T T S 2 2 2 2 s 2 2 2 2 T T T T ",
"T T 2 2 2 s 2 2 2 2 2 2 S T T T T T T S 2 2 2 s s 2 2 2 2 2 7 7 2 F 2 2 H +.F 2 2 2 2 ; 2 2 2 2 S - T T T T T T T S S 2 2 2 2 2 T T T T T T ",
"T T T 2 2 2 2 2 2 2 S T T 2 2 2 2 H 2 2 2 2 2 2 2 2 2 % 2 7 7 2 2 F 2 7 2 %.=.F 2 2 2 2 2 2 - - - - - - - - T T T T T T T S S T T T T T T T ",
"T T T T T S S S S S T 2 2 H J Z G G 5 2 2 2 2 2 2 2 % 2 2 2 2 2 2 2 2 2 2 ( =.;.2 2 $ $ $ $ $ $ $ $ $ $ $ - - T T T T T T T T T T T T T T T ",
"T T T T T T T T T T 2 H E / 5 % % % % 5 5 5 5 5 5 5 2 2 2 2 2 F F F 2 2 $ 2 ` ;.;.2 2 3 3 3 3 3 3 $ $ $ $ $ - - - T T T T T T T T T T T T T ",
"T T T T T T T T T T H J &.5 % % % % % % % % % % % 2 2 2 2 7 7 2 2 2 F 2 2 $ 2 ` =.=.2 2 2 T T T 3 3 3 3 $ $ $ - - T T T T T T T T T T T T T ",
"T T T T T T T T T 2 H X.5 % % S S S S S S S S 2 2 2 2 2 j 2 2 2 i 2 2 2 2 2 2 2 ~ Q X.2 2 2 2 2 2 2 2 2 T $ $ $ - - T T T T T T T T T T T T ",
"T T T T T T T T T 2 H X.5 % % S T T 2 2 2 2 2 2 2 2 2 j 7 2 i 7 & 2 2 2 F 2 2 2 2 H H H F F 2 2 2 2 2 2 2 2 2 $ s - T T T T T T T T T T T T ",
"T T T T T T T T T 2 H F 5 % S S T 2 2 2 h h h 7 2 2 2 j 2 2 2 & 2 2 2 2 2 F 2 2 2 7 2 2 2 2 2 2 F F F F F 2 2 2 s - - T T T T T T T T T T T ",
"T T T T T T T T T 2 2 2 5 % S T 2 2 g 7 7 2 2 2 2 2 j 7 2 i 2 & & 2 3 S 2 2 2 2 2 2 7 S S 2 2 2 2 2 2 2 2 2 F 2 2 - - T T T T T T T T T T T ",
"T T T T T T T T T T 2 2 5 % % 2 2 7 7 2 2 2 i i 2 2 g 7 2 2 2 & 7 2 3 T S 2 2 2 2 2 $ $ - T S S S S S S 2 2 2 F 2 2 - T T T T T T T T T T T ",
"T T T T T T T 2 2 2 2 2 % % 2 2 7 7 2 2 i i ; ; 2 2 j 2 2 2 T & & 2 2 3 T S S 2 2 2 2 $ - T T T T T S S S 2 2 F 2 2 2 T T T T T T T T T T T ",
"T T T T T T T 2 + + + 2 2 % 2 2 7 7 2 2 ; ; 2 2 2 g 7 2 2 S T & & & 2 T T T S 2 2 2 2 $ $ - T $ - - - T T S 2 2 F 2 2 T T T T T T T T T T T ",
"T T T T T T T 2 + + + 2 % % 2 2 7 7 2 i 2 2 2 2 2 g 7 2 2 T T T & & 2 3 T T T S 2 F 2 $ $ - T $ - - - - T T 2 2 F F 2 2 T T T T T T T T T T ",
"T T T T T T T 2 + + + % % % 2 2 F 7 2 2 2 2 2 2 g 7 7 2 i T T T & 7 2 3 T T T S 2 F 2 $ $ - T $ 3 3 - T T $ S 2 2 F 2 2 T T T 2 2 2 T T T T ",
"T T T T T T T T 2 % % % % T T 2 F F 7 2 2 2 2 $.7 7 2 2 2 T T T & 7 2 3 T T T T 2 F 2 $ $ $ - $ 3 3 - T $ $ $ s 2 F F 2 2 T 2 2 2 2 2 T T T ",
"T T T T T T T T T T T T T T T 2 2 F } } } X.a 7 7 2 2 i 2 2 T T & 7 2 T T T T T 2 F 2 3 $ $ - $ 3 3 3 3 $ - ; $ 2 2 F F 2 2 2 2 2 2 2 2 T T ",
"T T T T T T T T T T T T T T T T 2 2 2 7 7 7 7 2 2 2 2 & 2 2 T & & F 2 T T T S 2 2 F 2 3 $ $ - T $ $ $ ; ; $ $ $ T 2 2 F 2 2 2 2 2 2 2 2 T T ",
"T T T T T T T T T T T T T T T T T 2 2 2 2 2 2 2 2 i 2 & & 2 & & 7 2 2 T T T S 2 2 2 2 T $ $ $ T T $ $ $ $ $ $ T T 2 2 F F 2 2 2 2 2 2 T T T ",
"T T T T T T T T T T T T T T T T T T i i i i i i S 2 2 & & & & 7 F 2 2 T T T S 2 2 2 2 T 3 $ $ - T T T T T T T T T T 2 2 F F F F F 2 2 T T T ",
"T T T T T T T T T T T T T T T T T T T T 2 2 ; 2 S 2 2 F F 7 7 F 2 2 T T T T S 2 F 2 T T 3 $ $ - T T T T - - - T T T T 2 2 2 2 2 2 2 2 T T T ",
"T T T T T T T T T T T T T T T T T T T T 2 2 ; 2 2 T 2 2 F F 2 2 2 2 T T T T S 2 2 2 T T T T $ $ - T T T - - - - T T T T T 2 2 2 2 T T T T T ",
"T T T T T T T T T T T T T T T 2 2 T T T T 2 ; 2 2 T T 2 2 2 2 2 T T T T T T S 2 2 2 T T T T $ $ $ - T T - - - - T T T T T T T T T T T T T T ",
"T T T T T T T T T T T T T T 2 2 2 2 2 T 2 2 s ; 2 T T T T T T T T T T T T T S 2 2 2 T T T T T $ $ $ - - - - - - T T T T T T T T T T T T T T ",
"T T T T T T T T T T T T T 2 2 2 2 T T T 2 2 ; 2 2 T T T T T T T T T T T T T S 2 2 2 T T 2 2 2 T $ $ $ $ $ $ - - T T T T T T T T T T T T T T ",
"T T T T T T T T T T T T T 2 2 2 2 T T T 2 2 ; 2 2 T T T T T T T T T T T T T T 2 2 2 T 2 2 2 2 2 T T $ $ $ $ T T T T T T T T T T T T T T T T ",
"T T T T T T T T T T T T T 2 2 2 2 2 2 2 2 s 2 2 T T T T T T T T T T T T T T T 2 2 2 2 T 2 2 2 2 T T T T T T T T T T T T T T T T T T T T T T ",
"T T T T T T T T T T T T T 2 2 s ; 2 2 2 s 2 2 2 T T T T T T T T T T T T T T T T 2 2 2 2 2 2 2 2 T T T T T T T T T T T T T T T T T T T T T T ",
"T T T T T T T T T T T T T T 2 2 2 s s s 2 2 2 T T T T T T T T T T T T T T T T T T 2 2 2 2 2 2 T T T T T T T T T T T T T T T T T T T T T T T ",
"T T T T T T T T T T T T T T T 2 2 2 2 2 2 2 T T T T T T T T T T T T T T T T T T T T T 2 2 2 T T T T T T T T T T T T T T T T T T T T T T T T ",
"T T T T T T T T T T T T T T T T T T T T T T T T T T T T T T T T T T T T T T T T T T T T T T T T T T T T T T T T T T T T T T T T T T T T T T ",
"T T T T T T T T T T T T T T T T T T T T T T T T T T T T T T T T T T T T T T T T T T T T T T T T T T T T T T T T T T T T T T T T T T T T T T ",
"T T T T T T T T T T T T T T T T T T T T T T T T T T T T T T T T T T T T T T T T T T T T T T T T T T T T T T T T T T T T T T T T T T T T T T ",
"T T T T T T T T T T T T T T T T T T T T T T T T T T T T T T T T T T T T T T T T T T T T T T T T T T T T T T T T T T T T T T T T T T T T T T "
};
