/* XPM */
static char *personnage[] = {
/* columns rows colors chars-per-pixel */
"70 70 161 2 ",
"   c #010101",
".  c #0C0C0C",
"X  c #030D11",
"o  c #17191A",
"O  c #1D1D1B",
"+  c #05161E",
"@  c #1D1E20",
"#  c #07202B",
"$  c #1F2022",
"%  c #2A2B2D",
"&  c #202123",
"*  c #323335",
"=  c #3A3B3E",
"-  c #2F3031",
";  c #731801",
":  c #772902",
">  c #050041",
",  c #08205B",
"<  c #0B2F40",
"1  c #3C3D41",
"2  c #1C2068",
"3  c #053879",
"4  c #202762",
"5  c #242B78",
"6  c #3E3276",
"7  c #444444",
"8  c #46484A",
"9  c #5B5B5B",
"0  c #635F44",
"q  c #706B4A",
"w  c #66665D",
"e  c #686859",
"r  c #5F6062",
"t  c #646462",
"y  c #6C6C6B",
"u  c #686867",
"i  c #737372",
"p  c #797C7F",
"a  c #70706F",
"s  c #89340A",
"d  c #A03700",
"f  c #BA3002",
"g  c #984608",
"h  c #925603",
"j  c #A14D05",
"k  c #B95001",
"l  c #A14B10",
"z  c #AA5619",
"x  c #AF6413",
"c  c #B27605",
"v  c #CB5C05",
"b  c #DD5603",
"n  c #D86B01",
"m  c #D6741C",
"M  c #D74532",
"N  c #FF7C3B",
"B  c #9F9722",
"V  c #B9880C",
"C  c #CF9518",
"Z  c #D49203",
"A  c #F99B1C",
"S  c #D8A40A",
"D  c #DFA416",
"F  c #DEB903",
"G  c #C58522",
"H  c #C88A23",
"J  c #DDAF2A",
"K  c #DEB12A",
"L  c #E6BB2B",
"P  c #FFDC09",
"I  c #EBD11F",
"U  c #E6C912",
"Y  c #FFE007",
"T  c #EFDA22",
"R  c #E2C33E",
"E  c #EDCB30",
"W  c #FFEA21",
"Q  c #F0E334",
"!  c #968C5C",
"~  c #968D63",
"^  c #948F6F",
"/  c #A99E68",
"(  c #A9A073",
")  c #E2C443",
"_  c #E2C64B",
"`  c #FFDD4C",
"'  c #FFDC46",
"]  c #E2C752",
"[  c #E2C85B",
"{  c #FFDE54",
"}  c #FFDF59",
"|  c #FFE05E",
" . c #E2CB67",
".. c #E2CF7B",
"X. c #E2CE75",
"o. c #FFE163",
"O. c #FFE26B",
"+. c #FFE473",
"@. c #FFE67C",
"#. c #2F398B",
"$. c #3D4DA1",
"%. c #0672AE",
"&. c #0868A3",
"*. c #504388",
"=. c #67599E",
"-. c #557790",
";. c #8677B7",
":. c #75AFB3",
">. c #3FA1E8",
",. c #0EABE3",
"<. c #64BCEF",
"1. c #1BC5F1",
"2. c #2AC4EA",
"3. c #33C7F1",
"4. c #7BC6C3",
"5. c #72D1F4",
"6. c #63DBF7",
"7. c #84868A",
"8. c #95979A",
"9. c #8E9091",
"0. c #A9A9A9",
"q. c #B2B5B7",
"w. c gray75",
"e. c #AEB0B0",
"r. c #D6AD8C",
"t. c #DBC289",
"y. c #E2D082",
"u. c #E2D28A",
"i. c #E2D497",
"p. c #EAD793",
"a. c #FFE782",
"s. c #FFE886",
"d. c #FFE98C",
"f. c #F5E08E",
"g. c #FEEA94",
"h. c #FBEB9A",
"j. c #F4E296",
"k. c #FCF09E",
"l. c #E2D7A5",
"z. c #E2D9B1",
"x. c #FCECA2",
"c. c #FFEFAC",
"v. c #FCF3A9",
"b. c #FCF4A7",
"n. c #FFF0B3",
"m. c #FFF2BB",
"M. c #C6B6EB",
"N. c #8BDAF9",
"B. c #A0DBF7",
"V. c #B2F0FC",
"C. c #D2D2D2",
"Z. c #D9DADA",
"A. c #D5D7D8",
"S. c #C1C1C2",
"D. c #FFF4C3",
"F. c #FFF5CB",
"G. c #FEFAD3",
"H. c #E2E2E3",
"J. c #EAEAEB",
"K. c #F4F5F5",
"L. c #FEFEFE",
/* pixels */
"2.2.2.2.2.2.2.2.2.2.2.2.2.2.2.2.2.2.2.2.2.2.2.2.2.2.2.2.2.2.2.2.2.2.2.2.2.2.2.2.2.2.2.2.2.2.2.2.2.2.2.2.2.2.2.2.2.2.2.2.2.2.2.2.2.2.2.2.2.2.",
"2.2.2.2.2.2.2.2.2.2.2.2.2.2.2.2.2.2.2.2.2.2.2.2.2.2.2.2.2.2.2.2.2.2.2.2.2.2.2.2.2.2.2.2.2.2.2.2.2.2.2.2.2.2.2.2.2.2.2.2.2.2.2.2.2.2.2.2.2.2.",
"2.2.2.2.2.2.2.2.2.2.2.2.2.2.2.2.2.2.2.2.2.2.2.2.2.2.2.2.2.2.2.2.2.2.2.2.2.2.2.2.2.2.2.2.2.2.2.2.2.2.2.2.2.2.2.2.2.2.2.2.2.2.2.2.2.2.2.2.2.2.",
"2.2.2.2.2.2.2.2.2.2.2.2.2.2.2.2.2.2.2.2.2.2.2.2.2.2.2.2.2.2.2.2.2.2.2.2.2.2.2.2.2.2.2.2.2.2.2.2.2.2.2.2.2.2.2.2.2.2.2.2.2.2.2.2.2.2.2.2.2.2.",
"2.2.2.2.2.2.2.2.2.2.2.2.2.2.2.2.2.2.2.2.2.2.2.2.2.2.2.2.2.2.2.2.2.2.2.2.2.2.2.2.2.2.2.2.2.2.2.2.2.2.2.2.2.2.2.2.2.2.2.2.2.2.2.2.2.2.2.2.2.2.",
"2.2.2.2.2.2.2.2.2.2.2.2.2.2.2.2.2.2.2.2.2.2.2.2.2.2.2.2.2.2.2.2.2.2.2.2.2.2.2.2.2.2.2.2.2.2.2.2.2.2.2.2.2.2.2.2.2.2.2.2.2.2.2.2.2.2.2.2.2.2.",
"2.2.2.2.2.2.2.2.2.2.2.2.2.2.2.2.2.2.2.2.2.2.2.2.2.2.2.2.2.2.2.2.2.2.2.2.2.2.2.2.2.2.2.2.2.2.2.2.2.2.2.2.2.2.2.2.2.2.2.2.2.2.2.2.2.2.2.2.2.2.",
"2.2.2.2.2.2.2.2.2.2.2.2.2.2.2.2.2.2.2.2.2.2.2.2.2.2.2.2.2.2.2.2.2.2.2.2.2.2.2.2.2.2.2.2.2.2.2.2.2.2.2.2.2.2.2.2.2.2.2.2.2.2.2.2.2.2.2.2.2.2.",
"2.2.2.2.2.2.2.2.2.2.2.2.2.2.2.2.2.2.2.2.2.2.2.2.2.2.2.2.2.2.2.2.2.2.2.2.2.2.2.2.2.2.2.2.2.2.2.2.2.2.2.2.2.2.2.2.2.2.2.2.2.2.2.2.2.2.2.2.2.2.",
"2.2.2.2.2.2.2.2.2.2.2.2.2.2.2.2.2.2.2.2.2.2.2.2.2.2.2.2.2.2.2.2.2.2.2.2.2.2.2.2.2.2.2.2.2.2.2.2.2.2.2.2.2.2.2.2.2.2.2.2.2.2.2.2.2.2.2.2.2.2.",
"2.2.2.2.2.2.2.2.2.2.2.2.2.2.2.2.2.2.2.2.2.2.2.2.2.2.2.2.2.2.2.2.2.2.2.2.2.2.2.2.2.2.2.2.2.2.2.2.2.2.2.2.2.2.2.2.2.2.2.2.2.2.2.2.2.2.2.2.2.2.",
"2.2.2.2.2.2.2.2.2.2.2.2.2.2.2.2.2.2.2.2.2.2.2.2.2.2.2.2.2.2.2.2.2.2.2.2.2.2.2.2.2.2.2.2.2.2.2.2.2.2.2.2.2.2.2.2.2.2.2.2.2.2.2.2.2.2.2.2.2.2.",
"2.2.2.2.2.2.2.2.2.2.2.2.2.2.2.2.2.2.2.2.2.2.2.2.2.2.2.2.2.2.2.2.2.2.2.2.2.2.2.2.2.2.2.2.2.2.2.2.2.2.2.2.2.2.2.2.2.2.2.2.2.2.2.2.2.2.2.2.2.2.",
"2.2.2.2.2.2.2.2.2.2.2.2.2.2.2.2.2.2.2.2.2.2.2.2.2.2.  2.2.2.        2.2.2.2.2.2.2.2.2.2.2.2.2.2.2.2.2.2.2.2.2.2.2.2.2.2.2.2.2.2.2.2.2.2.2.2.",
"2.2.2.2.2.2.2.2.2.2.2.2.2.2.2.2.2.2.2.2.2.2.2.2.      O O   O   o     2.2.2.2.2.2.2.2.2.2.2.2.2.2.2.2.2.2.2.2.2.2.r r r r r t r r 2.2.2.2.2.",
"2.2.2.2.2.2.2.2.2.2.2.2.2.2.2.2.2.2.2.2.2.2.  O O o o % O % 9 7 7 7 7 2.2.2.2.2.2.2.2.2.2.2.2.2.2.2.2.2.2.2.r r r r C.r r r C.C.r r 2.2.2.2.",
"2.2.2.2.2.2.2.2.2.2.2.2.2.2.2.2.2.2.2.2.      O 9 7 7 7 o % 9 9 , 1 7   2.2.2.2.2.2.2.2.2.2.2.2.2.2.2.r r 2.r e.L.L.L.L.L.K.L.L.L.r 2.2.2.2.",
"2.2.2.2.2.2.2.2.2.2.2.2.2.2.2.2.  2.      O O 9 9 9 7 7 7 o 9 L.K.#.# 7 2.2.2.2.2.2.2.2.2.2.2.2.2.r r r r r r 9.0.0.C.C.L.L.L.L.L.r 2.2.2.2.",
"2.2.2.2.2.2.2.2.2.2.2.2.2.2.2.2.        % O O 9 9 L.L.w.7 . , L.L.# %.7   2.2.2.2.2.2.2.2.2.2.2.r r r r r r r 0.S.0.0.S.w.w.w.K.L.r 2.2.2.2.",
"2.2.2.2.2.2.2.2.2.2.2.2.2.2.2.2.%       O O o , L.L.3 L.7 7 , L.X # 1.7   2.2.2.2.2.2.2.2.2.2.2.r 0.r 2.2.r r L.J.J.J.K.K.H.w.w.L.r 2.2.2.2.",
"2.2.2.2.2.2.2.2.2.2.2.2.2.2.2.2.2.2.      % o ,.L.L.&., 7 7 9 6.  :.6.8     3.2.2.2.2.2.2.2.2.2.r r r . . . r B s x C f.K.K.K.w.L.r 2.2.2.2.",
"2.2.2.2.2.2.2.2.2.2.2.2.2.2.2.2.2.2.2.    8 o 3.L.+ < %.7 1 o 5.N.V.V.7 O   2.2.2.2.2.2.2.2.2.2.r r . . 8 @ r J.z x C f.g.h.h.u.D r 2.2.2.2.",
"2.2.2.2.2.2.2.2.2.2.2.2.2.2.2.2.2.2.2.  % 8 o 5.  X 4.,.7 7 k k , , k k k     m 2.2.2.2.2.2.2.3.r % * @ @ * r s l G J I k.T v.A.K.r 2.2.2.2.",
"2.2.2.2.2.2.2.2.2.2.2.2.2.2.2.2.2.2.2.  % 7 o 5.N.-.V., m k k A W W A n k k k k v 2.2.2.2.2.2.. - * * @ @ - r s g G J I k.v.v.A.L.r 2.2.2.2.",
"2.2.2.2.2.2.2.2.2.2.2.2.2.2.2.2.2.2.2.  8 8 O 9 B.V., 7 k k A A A W A A A A n k 2.2.2.2.2.2.. p -.@ @ @ - - r l j G K h.k.T v.C.K.w r 2.2.2.",
"2.2.2.2.2.2.2.2.2.2.2.2.2.2.2.2.2.2.    8 8 n k 9 7 m k k A A A A Y n n n k k k 2.2.2.2.2.. . p p @ @ r - p r l z G K j.k.T b.^ Z.Q r 2.2.2.",
"2.2.2.2.2.2.2.2.2.2.2.2.2.2.2.2.2.2.    8 8 k k k k k k A n k k k k k d d d     2.2.2.2.2.. . p 8 O r r r 2.r d z H K h.k.T T x.S L.r 2.2.2.",
"2.2.2.2.2.2.2.2.2.2.2.2.2.2.2.2.2.2.  % 8 8 k k n n A k k k k A.Z.Z.Z.f n b $   2.2.2.2.. . -.p O - r r r r r l j H S h.k.b.b.x.L Z r 2.2.2.",
"2.2.2.2.2.2.2.2.2.2.2.2.2.2.2.2.2.2.  % 8 8 @ k k d d d ; M M M M M f f b b 1 1 . O . . . * p 8 & - J.9 r 0.0.l x H K I k.b.F x.E D 9 2.2.2.",
"2.2.2.2.2.2.2.2.2.2.2.2.2.2.2.2.2.2.  8 8 8 @ O @ N b b ; f f v f f v n b 1 ) ) . . . @ $ * p 8 - - J.i r r 0.: x H S j.k.b.T x.L S r 2.2.2.",
"2.2.2.2.2.2.2.2.2.2.2.2.2.2.2.2.2.2.  8 8 O = = = = = b b P P v v n Y P b R ` { . . @ 8 $ * p O - y y i 2.r h : g c S h.b.b.F x.j.V r 2.2.2.",
"2.2.2.2.2.2.2.2.2.2.2.2.2.2.2.2.2.    8 8 = = [ ] ] = 1 m P P P P P P b ) { { | } . . O $ * 8 O % L.a a 1.r r r.r.h c I j.k.E u.r.c r 2.2.2.",
"2.2.2.2.2.2.2.2.2.2.2.2.2.2.2.2.2.  % 8 O = = _ _ ' ) 1 1 1 1 b b b 1 ] | | | | o.. . . O * 8 % % H.y 2.2.2.t q.L.L.j.G.G.G.x.q.L.L.9 2.2.2.",
"2.2.2.2.2.2.2.2.2.2.2.2.2.2.2.      % 8 @ = = R R ' ' ' ) ) 1 1 1 ] ] | o.o.o.O. .. . . 8 @ @ % Z.H.y 2.2.2.r r r r q.q.A.L.L.r r r r 2.2.2.",
"2.2.2.2.2.2.2.2.2.2.2.2.2.        % 8 8 @ = = = ) ) { { } } | | o.o.o.O.O.O.+.+. .. . . 8 8 @ % L.y y 2.2.2.2.2.2.r r r r r r r 2.2.2.2.2.2.",
"2.2.2.2.2.2.2.2.2.2.2.      % % % 8 % 8 8 = = = 1 ] ] | | o.o.O.O.O.+.+.+.@.@.@.@.. . . 8 @ % % A.y B.B.B.2.2.1.2.2.2.2.2.2.2.2.2.2.2.2.2.2.",
"2.2.2.2.2.2.2.2.2.2.      p p p 8 O O O 8 8 = = 7.[ [ [ O.O.O.+.+.@.@.@.a.@.s.s...... . @ @ % C.u u <.<.B.B.B.B.B.2.2.2.2.2.2.2.2.2.2.2.2.2.",
"2.2.2.2.2.2.2.2.B.    8 p p p p -.p O O O 8 = = = [ [  . .+.+.@.@.@.@.a.s.d.d.d.! ! . . @ % % u u 2 2 *.<.<.B.B.B.B.2.2.2.2.2.2.2.2.2.2.2.2.",
"2.2.2.2.2.2.>.B.B.w 8 -.8 8 8 8 8 p p O O O $ = =  . .X.X.@.a.s.s.s.s.d.g.g.g.~ ! ~ ~ . % % t u 6 6 2 2 <.<.<.B.B.B.B.2.2.2.2.2.2.2.2.2.2.2.",
"2.2.2.2.2.2.B.B.u e   - 8 8 8 8 8 8 8 p O O % 7 = = 7.X.X.X.......g./ / / q ! ~ ~ ~ i.- % t u 6 6 6 6 2 2 <.<.<.B.B.B.B.2.2.2.2.2.2.2.2.2.2.",
"2.2.2.2.2.B.B.B.r t t r w t w t - % 8 8 ;.O O % 1 1 ....f...u.g.g.h./ ( q 0 ~ ^ i.i.n.l.7.4 4 6 6 *.*.6 2 $.<.<.B.B.B.B.B.2.2.2.2.2.2.2.2.2.",
"2.2.2.2.2.B.B.B.B.w w t w t t t e e w % 7 i O % 1 1 y.y.g.h.h.h.x.x.( ( ( n.i.n.n.m.m.l.7.7.4 6 *.*.*.*.2 2 <.<.<.B.B.B.B.B.2.2.2.2.2.2.2.2.",
"2.2.2.2.2.B.B.B.<.<.#.w r w =.w e w w w % 7 O O % 1 u.u.x.x.x.x.c.c.v.n.n.n.m.m.m.m.m.D.z.7.4 *.*.*.*.*.*.2 <.<.<.B.B.B.B.B.2.2.2.2.2.2.2.2.",
"2.2.2.2.2.B.B.B.<.$.#.=.=.=.=.=.=.w w w q % % O % 1 u.i.b.c.v.n.v.n.n.m.m.m.m.D.D.F.F.8.7.7.*.*.*.*.*.*.*.5 <.<.<.B.B.B.B.B.2.2.2.2.2.2.2.2.",
"2.2.2.2.B.B.B.5.<.#.#.=.=.;.;.=.=.=.p e e w O w % 1 i.i.c.n.n.m.m.m.D.D.D.D.F.F.F.8.8.8.4 =.=.=.*.*.*.*.*.5 <.<.<.B.B.B.B.B.2.2.2.2.2.2.2.2.",
"2.2.2.2.B.B.B.<.<.#.#.=.M.M.;.;.=.=.=.4 e e w w % 1 1 l.m.m.m.m.D.D.D.F.F.F.8.8.8.8.4 =.=.=.=.=.=.*.*.*.*.5 <.<.B.B.B.B.B.B.2.2.2.2.2.2.2.2.",
"2.2.2.2.B.B.<.<.<.$.#.=.M.M.M.;.;.;.=.=.4 e e % % @ 1 l.D.D.D.F.8.8.8.8.8.8.8.4 *.=.=.=.=.=.=.=.=.*.*.*.5 5 <.<.B.B.B.B.B.B.2.2.2.2.2.2.2.2.",
"2.2.2.B.B.B.<.<.<.<.#.=.M.M.M.M.;.;.;.=.=.=.=.4 % @ 1 7.8.8.8.8.8.8.*.*.*.=.=.=.=.=.=.=.=.=.=.=.=.*.*.*.5 <.<.<.B.B.B.B.B.B.2.2.2.2.2.2.2.2.",
"2.2.2.B.B.B.<.<.<.<.#.=.=.M.M.M.M.;.;.;.;.=.=.=.=.=.=.=.=.=.=.=.=.=.=.=.;.;.;.;.;.;.=.=.=.=.=.=.*.*.*.5 5 <.<.B.B.B.B.B.B.2.2.2.2.2.2.2.2.2.",
"2.2.2.B.B.B.<.<.<.<.#.#.=.;.M.M.M.M.;.;.;.;.;.;.;.;.;.;.;.;.;.;.;.;.;.;.;.;.;.;.;.;.;.=.=.=.=.=.*.*.5 5 <.<.<.B.B.B.B.B.B.2.2.2.2.2.2.2.2.2.",
"2.2.2.B.B.B.B.<.<.<.<.#.=.=.M.M.M.M.M.M.;.;.;.;.;.;.;.;.;.;.;.;.;.;.;.;.;.;.;.;.;.;.;.=.=.=.=.*.*.5 5 $.<.<.B.B.B.B.B.B.B.2.2.2.2.2.2.2.2.2.",
"2.2.2.2.B.B.B.<.<.<.<.#.$.=.=.;.M.M.M.M.M.;.;.;.;.;.;.;.;.;.;.;.;.;.;.;.;.;.;.;.;.;.=.=.=.=.*.*.5 5 <.<.<.B.B.B.2.B.B.B.2.2.2.2.2.2.2.2.2.2.",
"2.2.2.2.2.B.B.B.<.<.<.<.#.#.=.=.;.M.M.M.M.M.M.M.;.;.;.;.;.;.;.;.;.;.;.;.;.;.;.;.;.=.=.=.=.*.5 5 5 <.<.<.B.B.B.B.2.2.B.2.2.2.2.2.2.2.2.2.2.2.",
"2.2.2.2.B.B.B.B.<.<.<.<.5.#.#.=.=.=.;.;.;.;.M.M.;.;.;.;.;.;.;.;.;.;.;.;.;.;.;.=.=.=.=.=.5 5 5 $.<.<.<.<.B.B.B.B.B.B.2.2.2.2.2.2.2.2.2.2.2.2.",
"2.2.2.2.B.B.B.B.B.<.<.<.<.<.#.#.#.=.=.=.;.;.;.;.;.;.;.;.;.;.;.;.;.;.;.;.;.=.=.=.=.=.5 5 5 $.<.<.<.<.<.B.B.B.B.B.B.2.2.2.2.2.2.2.2.2.2.2.2.2.",
"2.2.2.2.2.B.B.B.B.B.<.<.>.>.<.<.#.#.#.=.=.=.=.;.;.;.;.;.;.;.;.;.;.=.=.=.=.=.#.#.#.#.#.<.<.<.<.<.<.<.B.B.B.2.2.B.2.2.2.2.2.2.2.2.2.2.2.2.2.2.",
"2.2.2.2.2.2.B.B.B.B.B.B.5.<.>.<.<.<.#.#.#.#.#.#.=.=.=.=.=.=.=.=.#.#.#.#.#.#.#.#.<.<.<.<.<.<.<.<.B.B.B.B.2.2.2.2.2.2.2.2.2.2.2.2.2.2.2.2.2.2.",
"2.2.2.2.2.2.2.B.B.B.B.B.B.<.<.B.<.<.<.<.<.<.$.#.#.#.#.#.#.#.#.#.#.#.$.<.<.<.<.<.<.<.<.<.<.<.B.B.B.B.2.2.2.2.2.2.2.2.2.2.2.2.2.2.2.2.2.2.2.2.",
"2.2.2.2.2.2.2.2.B.B.B.B.B.B.B.B.B.B.B.<.<.<.<.<.<.<.<.<.<.<.<.<.<.<.<.<.<.<.<.<.<.<.<.B.B.B.B.B.2.2.2.2.2.2.2.2.2.2.2.2.2.2.2.2.2.2.2.2.2.2.",
"2.2.2.2.2.2.2.2.,.B.B.B.B.B.2.B.B.B.B.B.B.B.B.B.B.<.<.<.B.B.B.B.<.<.<.<.B.B.<.<.B.B.B.B.B.B.2.2.2.2.2.2.2.2.2.2.2.2.2.2.2.2.2.2.2.2.2.2.2.2.",
"2.2.2.2.2.2.2.2.2.2.2.2.B.B.B.2.B.B.B.B.B.B.B.B.B.B.B.B.B.B.B.<.<.<.<.<.B.B.B.B.B.B.B.2.2.2.2.2.2.2.2.2.2.2.2.2.2.2.2.2.2.2.2.2.2.2.2.2.2.2.",
"2.2.2.2.2.2.2.2.2.2.2.2.2.2.2.2.B.B.B.B.B.B.B.B.B.2.2.B.B.B.B.<.<.<.<.B.B.B.B.B.B.B.B.2.2.2.2.2.2.2.2.2.2.2.2.2.2.2.2.2.2.2.2.2.2.2.2.2.2.2.",
"2.2.2.2.2.2.2.2.2.2.2.2.2.2.2.2.2.B.B.B.B.B.B.B.B.2.2.B.B.B.B.B.B.B.2.2.2.2.2.2.2.2.2.2.2.2.2.2.2.2.2.2.2.2.2.2.2.2.2.2.2.2.2.2.2.2.2.2.2.2.",
"2.2.2.2.2.2.2.2.2.2.2.2.2.2.2.2.2.2.2.2.2.B.B.B.2.2.B.B.2.2.2.2.2.2.2.2.2.2.2.2.2.2.2.2.2.2.2.2.2.2.2.2.2.2.2.2.2.2.2.2.2.2.2.2.2.2.2.2.2.2.",
"2.2.2.2.2.2.2.2.2.2.2.2.2.2.2.2.2.2.2.2.2.2.2.2.2.2.2.2.2.2.2.2.2.2.2.2.2.2.2.2.2.2.2.2.2.2.2.2.2.2.2.2.2.2.2.2.2.2.2.2.2.2.2.2.2.2.2.2.2.2.",
"2.2.2.2.2.2.2.2.2.2.2.2.2.2.2.2.2.2.2.2.2.2.2.2.2.2.2.2.2.2.2.2.2.2.2.2.2.2.2.2.2.2.2.2.2.2.2.2.2.2.2.2.2.2.2.2.2.2.2.2.2.2.2.2.2.2.2.2.2.2.",
"2.2.2.2.2.2.2.2.2.2.2.2.2.2.2.2.2.2.2.2.2.2.2.2.2.2.2.2.2.2.2.2.2.2.2.2.2.2.2.2.2.2.2.2.2.2.2.2.2.2.2.2.2.2.2.2.2.2.2.2.2.2.2.2.2.2.2.2.2.2.",
"2.2.2.2.2.2.2.2.2.2.2.2.2.2.2.2.2.2.2.2.2.2.2.2.2.2.2.2.2.2.2.2.2.2.2.2.2.2.2.2.2.2.2.2.2.2.2.2.2.2.2.2.2.2.2.2.2.2.2.2.2.2.2.2.2.2.2.2.2.2.",
"2.2.2.2.2.2.2.2.2.2.2.2.2.2.2.2.2.2.2.2.2.2.2.2.2.2.2.2.2.2.2.2.2.2.2.2.2.2.2.2.2.2.2.2.2.2.2.2.2.2.2.2.2.2.2.2.2.2.2.2.2.2.2.2.2.2.2.2.2.2.",
"2.2.2.2.2.2.2.2.2.2.2.2.2.2.2.2.2.2.2.2.2.2.2.2.2.2.2.2.2.2.2.2.2.2.2.2.2.2.2.2.2.2.2.2.2.2.2.2.2.2.2.2.2.2.2.2.2.2.2.2.2.2.2.2.2.2.2.2.2.2."
};
