/* XPM */
static char *reelexit[] = {
/* columns rows colors chars-per-pixel */
"70 70 131 2 ",
"   c #060202",
".  c #090301",
"X  c #131213",
"o  c #1E1B1C",
"O  c #171718",
"+  c #071E29",
"@  c #231F20",
"#  c #242424",
"$  c #2C2C2E",
"%  c #323132",
"&  c #3B3533",
"*  c #3A393A",
"=  c #6B0F00",
"-  c #6B1100",
";  c #641A00",
":  c #08205B",
">  c #0F2F6F",
",  c #053476",
"<  c #464547",
"1  c #4F4C4D",
"2  c #504F50",
"3  c #545455",
"4  c #5D5D5F",
"5  c #616061",
"6  c #6C6B6D",
"7  c #8E3A03",
"8  c #AB2A00",
"9  c #B3230E",
"0  c #BA2B0A",
"q  c #B63403",
"w  c #CB2E0D",
"e  c #D63D12",
"r  c #D03D19",
"t  c #915F1E",
"y  c #A44001",
"u  c #BA5617",
"i  c #A8690D",
"p  c #D55B09",
"a  c #F35E03",
"s  c #F77305",
"d  c #D84A21",
"f  c #F6800F",
"g  c #F99B1C",
"h  c #FDBD30",
"j  c #FFC103",
"k  c #FFD70F",
"l  c #FFDE1D",
"z  c #FFD835",
"x  c #FFEA27",
"c  c #CDBA56",
"v  c #FFDB45",
"b  c #FFDD4B",
"n  c #FFDE53",
"m  c #FFDF59",
"M  c #FFE05E",
"N  c #FFE164",
"B  c #FFE36C",
"V  c #FFE473",
"C  c #FFE67C",
"Z  c #054181",
"A  c #11558B",
"S  c #075C99",
"D  c #647782",
"F  c #667882",
"G  c #697B83",
"H  c #707E86",
"J  c #117EFF",
"K  c #3786A1",
"L  c #6494A4",
"P  c #178ED4",
"I  c #168EFF",
"U  c #18B5EE",
"Y  c #24A1FF",
"T  c #35B3FF",
"R  c #3EBBFF",
"E  c #2AC4EA",
"W  c #4AC7FF",
"Q  c #5FCFF7",
"!  c #57CCFF",
"~  c #58D2FF",
"^  c #69DEFF",
"/  c #74E1FF",
"(  c #8C8D8F",
")  c #969697",
"_  c #95979A",
"`  c #9D9B9B",
"'  c #A9ABAE",
"]  c #AFAFB1",
"[  c #B6B6B6",
"{  c #BFC3B5",
"}  c #FFE783",
"|  c #FFE887",
" . c #FFE98B",
".. c #FFEA93",
"X. c #FFEC9C",
"o. c #CDCAA5",
"O. c #FFEDA3",
"+. c #FFEFAB",
"@. c #FFF0AF",
"#. c #F0E6BF",
"$. c #FFF0B3",
"%. c #FFF2BB",
"&. c #A4C4D4",
"*. c #BDE3DE",
"=. c #8BDDF9",
"-. c #99E6FA",
";. c #BFF5FD",
":. c #C2C3C5",
">. c #CACBCD",
",. c #D7D7D8",
"<. c #D5D6D7",
"1. c #FFF4C3",
"2. c #FFF5CB",
"3. c #FFF7D4",
"4. c #FFF8DC",
"5. c #DEDFE0",
"6. c #DCE5E7",
"7. c #DEE6E8",
"8. c #C3F0FD",
"9. c #E2E7E9",
"0. c #E6E9EA",
"q. c #EBECEC",
"w. c #F0EFED",
"e. c #F0EDE2",
"r. c #FFFAE3",
"t. c #FFFBEC",
"y. c #E1F9FF",
"u. c gray96",
"i. c #FFFDF3",
"p. c #F6FAFC",
"a. c #FDFEFE",
/* pixels */
"E E E E E E E E E E E E E E E E E E E E E E E E E E E E E E E E E E E E E E E E E E E E E E E E E E E E E E E E E E E E E E E E E E E E E E ",
"E E E E E E E E E E E E E E E E E E E E E E E E E E E E E E E E E E E E E E E E E E E E E E E E E E E E E E E E E E E E E E E E E E E E E E ",
"E E E E E E E E E E E E E E E E E E E E E E E E E E E E E E E E E E E E E E E E E E E E E E E E E E E E E E E E E E E E E E E E E E E E E E ",
"E E E E E E E E E E E E E E E E E E E E E E E E E E E E E E E E E E E E E E E E E E E E E E E E E E E E E E E E E E E E E E E E E E E E E E ",
"E E E E E E E E E E E E E E E E E E E E E E E E E E E E E E E E E E E E E E E E E E E E E E E E E E E E E E E E E E E E E E E E E E E E E E ",
"E E E E E E E E E E E E E E E E E E E E E E E E E E E E E E E E E E E E E E E E E E E E E E E E E E E E E E E E E E E E E E E E E E E E E E ",
"E E E E E E E E E E E E E E E E E E E E E E E E E * * % E E E E E E E E E E E E E E E E E E E E E E E E E E E E E E E E E E E E E E E E E E ",
"E E E E E E E E E E E E E E E E E E E E E E E E E # * * * * E E E E E E E E E E E E E E E E E E E E E E E =.=.=.=.E E E E E E E E E E E E E ",
"E E E E E E E E E E E E E E E E E E E E E E E E # @ * o @ # # E E E E E E E E E E E E E E E E E E =.E E =.8.8.8.8.=.=.E E E E E E E E E E E ",
"E E E E E E E E E E E E E E E E E E E E E E 5 1 1 @ 1 1 1 1 # E E E E E E E E E E E E E E E =.=.=.=.=.=.=.y.y.y.y.8.=.=.E E E E E E E E E E ",
"E E E E E E E E E E E E E E E E E E E E E & & < 1 1 1 $ < 2 2 E E E E E E E E E E E E E E =.=.=.=.8.=.=.;.y.y.y.y.y.8.=.=.E E E E E E E E E ",
"E E E E E E E E E E E E E E E E E E E E . & @ o $ 1 o o o $ 2 E E E E E E E E E E E E E E =.=.=.=.8.8.=.8.y.y.y.y.y.y.8.=.=.E E E E E E E E ",
"E E E E E E E E E E E E E E E E E E E . . o o o o o o 5.o o 2 * E E E E E E E E E E E E E =.8.8.=.8.8.-.8.y.y.y.y.y.y.y.8.=.E E E E E E E E ",
"E E E E E E E E E E E E E E E E E E   . @ o , a.o o : a.a.o # * E E E E E E E E E E E E E =.=.=.=.8.8.=.8.y.y.8.y.y.y.y.y.8.=.=.=.E E E E E ",
"E E E E E E E E E E E E E E E E E E . . o S + a.5.o Z a.a.: X o E E E E E E E E E E E E E =.=.=.=.=.8.=.8.y.8.8.y.y.y.y.y.8.=.8.8.=.E E E E ",
"E E E E E E E E E E E E E E E E E . . @ @ U > a.U o P A L : @ @ # E E E E E E E E E E E E E =.=.=.=.8.=.8.y.8.=.y.y.y.y.y.y.8.8.8.8.E E E E ",
"E E E E E E E E E E E E E E E E E   . . # @ K -.o @ : Q 8.o @ o o E E E E E E E E E E E E E & % & % =.=.=.=.=.=.y.y.y.y.y.y.8.8.y.8.=.E E E ",
"E E E * * E E E E E E E E E E E E   . < $ @ : X w p o o o o < o @ E E E E E E T E E E * 5 3 % % % % =.=.=.=.=.=.8.y.y.y.8.8.y.y.y.y.8.E E E ",
"E E E % % % * E E E E T E E E E E   X w d d d e d x g f e 0 0 0 d E E % 4 5 5 5 5 5 3 3 3 % % % :.' =.=.T =.=.=.=.y.y.y.8.8.y.y.y.y.8.=.E E ",
"E E E % % % % 3 3 5 4 * * * E E E   d w d d d x x g g g s p 0 0 0 $ 3 3 6 4 4 4 4 3 % % % % :.9.:.:.T T T T T =.=.y.y.y.8.8.y.y.y.y.8.=.E E ",
"E E E ' :.:.% % % 3 4 4 4 5 5 5 4   d w d d g g l x g g g s 0 0 # * * * * % % % % * % :.:.5.5.:.:.T T T T T T =.=.=.y.y.=.=.8.8.y.y.8.=.=.E ",
"E E E :.:.,.:.:.% * % % % * * * * * * $ e d d e e x x g g p 0 $ * % % % % % :.:.&.o.5.5.5.5.5.:.:.T T T T T T =.=.-.8.8.=.=.=.=.y.y.y.=.=.E ",
"E E E E :.5.6.5.5.o.&.:.% % % % % * & $ r 9 9 9 d e x g g 0 0 < * $ % :.:.:.5.5.5.5.5.5.5.:.:.:.T E T T T T T T =.=.8.8.=.=.=.=.8.y.y.8.8.E ",
"E E E E :.:.:.5.5.5.5.5.5.:.:.:.% * *.$ ) d r 9 9 0 0 f p 0 _ < * $ :.:.5.5.5.5.5.5.:.:.' ' E E E E T T T T I T =.=.=.=.=.=.=.=.8.y.y.y.8.=.",
"E E E E E :.] ' 5.5.5.5.5.5.5.5.:.*.{ $ _ o.d d d d 0 0 0 0 _ $ * ' :.5.5.5.5.:.:.:.' ' ' E E =.=.E T T ! T I T T =.=.=.=.=.T =.8.y.y.y.8.=.",
"E E E E E E E ' ' ' :.:.5.5.5.5.9.* $ ) ) .. .C V B c 0 0 b _ $ * ' :.5.:.:.' ' ' ' ' E E E E =.=.E T ~ / T I T T =.=.=.=.=.T =.8.y.y.y.8.=.",
"E E E E E E E E E ' ' ' :.:.:.5.5.* $ ) V N M m b b v b b n ` $ * ' &.o.' ' ' ' ' E E E E E E =.=.E T ~ / ~ I T T T =.=.=.T T =.=.y.y.y.8.=.",
"E E E E E E E E E E ' ' ' ' ' ' &.* q._ b b v b b n m m M M ` $ * * ' ) ' j j = E E E E E E E =.=.E T ~ / / I T Q T I T T T T =.=.8.=.y.8.=.",
"E E E E E E E E E E E E E E ' ' & # u._ n n m m N B B V V ) ' $ < * _ _ j j j = = E E =.E E E =.=.E T ~ / / I T ! T I T T T T T =.=.=.y.8.=.",
"E E E E E E E E E E E E E E E E & % u.) N B B V V C C } | ..( $ < * # * j j j j = E E =.=.=.E E E E T ~ / / I / ! I I T T T T T =.=.=.8.=.E ",
"E E E E E E E E E E E E E E E E & $ ) V C C }  . .....X.X.O.( ' < < # # # j j j = E E =.=.=.E E E E T ~ / / R / / I I ! T I I T =.=.=.=.=.E ",
"E E E E E E E E E E E E E E E E # % )  . .....X.O.O.+.+.$.$.<.p.$ < < $ # # j j = = E =.=.=.E E E E T ^ / W R / / I T ! T I T T T =.=.=.=.E ",
"E E E E E E E E E E E E E E E # O $ _ X.O.O.@.$.$.%.%.1.1.2.#.a._ < < $ $ # # j j = E E =.=.E E E E T / / W R / / I ~ / T I T T T T =.=.=.E ",
"E E E E E E E E E E E E E E E # o _ >.$.$.$.%.1.1.2.2.3.3.4.4.p.,.$ < < $ $ # j j - E E =.=.E E E T ~ / / W W / R I / / T I T T T T T T E E ",
"E E E E E E E E E E E E E E E # $ [ >.1.2.2.2.3.4.4.4.r.r.t.i.e.,.] < < $ $ # j j - :.E =.=.E E E T ~ / / ^ / / R R / / I I T T T T T T E E ",
"E E E E E E E E E E E E E E E # $ 6 ,.3.4.r.r.r.t.t.i.i.a.a.a.w.( ] ( < $ $ # # * :.:.& E E E E E T / / / W / / I / / / I I T T T T T T E E ",
"E E E E E E E E E E E E E E E # # $ _ _ t.t.i.a.a.a.a.a.a.a.a.a.w.w.( _ $ $ $ # * p.q.q.E E E E T ~ / / W W / W Y / / ~ I T T T T T T T E E ",
"E E E E E E E E E E E E E E E E # $ _ a.a.a.a.a.a.a.a.a.a.a.a.a.w.w.( ( $ $ # # < ` * < E E E E T ~ / / ^ W / W W / / R I ! T T T T T E E E ",
"E E E E E E E E E E E E E E E = # $ ( ( a.a.a.a.a.a.a.a.a.a.a.a.q.q.q.( ( % # # :.` ` E E E E T ~ / / W R / / W / / / I I ! T T T T T E E E ",
"E E E E E E E E E =.E E E E E = # i i ( 7 7 a.a.a.a.a.a.a.a.a.p.q.q.q.0.( $ # < :.:.` E E E T T ~ / / R R / W W / / / I / ! I I T T T E E E ",
"E E E E E E E E =.=.=.E E E = = j i i i 7 7 a.a.a.a.a.p.a.p.p.q.0.0.0.0.( # # * * :.* E E E T ~ / / ~ R / / W / / / W R / T I T T T E E E E ",
"E E E E E E E E =.=.=.E E E = = j i i i i 7 7 7 p.p.p.p.p.p.0.0.0.0.9.0.H # ` l j j = E =.=.~ / / / I R / W W / / / Y / / I I T T T E E E E ",
"E E E E E E E E E =.=.E E E i i i i i g i 7 ; 7 7 0.0.0.0.9.9.9.9.7.7.6.G G * l j j = =.=.=.~ / / ~ R / / Y / / / R W / / I I T T T E E E E ",
"E E E E E E E E E E E E E = = i i i i g g 7 ; 8 7 7 9.9.9.7.7.&.F D D D D D q l j j = =.=.=./ / T R R / R R / / W I / / R I ! T T E E E E E ",
"E E E E E E E E E E E E E - j l i i g g g a 7 8 ; 7 D D D D D D D D D D a a q q j j = =.=.=.~ T I R / R I / / / R R / / I I T T T E E E E E ",
"E E E E E E E =.=.E E E E - l l l y y y a a 7 ; ; j j j l l l l l h h z g a s s q j = =.=.=.T T I / / I R / / R R / / R R ! T T E E E E E E ",
"E E E E E E E =.=.=.E E = = l l l l j y y y y 7 7 t j j l l l l l h a s z a s s s j J =.8.=.T I R / I R / / R R ~ / W R / T T E E E E E E E ",
"E E E E E =.=.=.=.=.E E J j l l l l l j j j y y t t j l l l l l l h q q h a q h s J J 8.8.=.I I ! I R / / / R R / / ~ R ~ T T E E E E E E E ",
"E E E E E =.=.=.=.=.E =.J j l x x l l l l l l l l l l l l l l l x h s u h s q j q J - y.8.=.T ! I I ~ / ~ R R / / W W / T T E E E E E E E E ",
"E E E E E =.=.=.=.=.E =.J j x x x x x l l l l l l l l l l x x x x x s x x q l j j J ;.8.8.=.=.I I I / ~ I R / / R R / ~ T E E E E E E E E E ",
"E E E E E E E E E E E =.J j x x x x x x x l l l l l l x x x x x x x x x x x j j J J 8.8.y.=.=.I I ! I I R / / R R / ~ T T E E E E E E E E E ",
"E E E E E E E E E E E =.J J j x x x x x x x x x x x x x x x x x x x x x x x j j J J y.y.y.=.=.T T I I R / / R R ~ ~ T T E E E E E E E E E E ",
"E E E E E E E =.=.=.=.=.J J j x x x x x x x x x x x x x x x x x x x x x x j j J J 8.y.y.y.=.=.I I I ~ / R R R ~ ~ T T E E E E E E E E E E E ",
"E E E E E E E =.=.=.=.=.J J j j x x x x x x x x x x x x x x x x x x x x j j J J J 8.y.y.8.=.T I T T / R R R / ~ T T E E E E E E E E E E E E ",
"E E E E E E E =.8.y.8.8.J J J j j x x x x x x x x x x x x x x x x x x j j J J J J y.y.y.=.=.T T T I I R ~ ~ ~ T T E E E E E E E E E E E E E ",
"E E E E E E E =.8.y.y.y.J J J J j j x x x x x x x x x x x x x x x x j j J J J J 8.y.y.8.=.=.T I I I ~ / ~ T T T E E E E E E E E E E E E E E ",
"E E E E E E E E =.8.y.y.;.J J J J j j j x x x x x x x x x x x l j j j J J J J 8.y.y.8.=.=.T T T T ~ ~ ~ T T T E E E E E E E E E E E E E E E ",
"E E E E E E E E =.=.8.y.y.J J J J J J j j j j j k x x l j j j j j J J J J J J ;.y.8.=.=.T T T T T ~ T T T T E E E E E E E E E E E E E E E E ",
"E E E E E E E E E =.8.8.y.8.J J J J J J J J J j j j j j j J J J J J J J J J 8.y.8.8.=.=.T T T T T T T T T E E E E E E E E E E E E E E E E E ",
"E E E E E E E E E E =.=.8.8.8.J J J J J J J J J J J J J J J J J J J J J 8.y.y.8.8.8.=.=.T T T T T T T T E E E E E E E E E E E E E E E E E E ",
"E E E E E E E E E E E E =.8.;.y.J J J J J J Y Y Y J Y Y Y Y J J J J J 8.y.y.y.y.y.8.=.=.T T T T T T E E E E E E E E E E E E E E E E E E E E ",
"E E E E E E E E E E E E E =.=.8.8.8.J J J J J J J J J J J J J J J 8.y.y.y.y.y.8.=.=.=.T T T T T T E E E E E E E E E E E E E E E E E E E E E ",
"E E E E E E E E E E E E E E U =.=.8.8.;.8.8.=.= J J J = ;.8.8.y.y.y.y.y.y.;.8.=.=.T T T T T E E E E E E E E E E E E E E E E E E E E E E E E ",
"E E E E E E E E E E E E E E E E E U =.=.=.=.=.8.y.y.y.y.y.y.y.y.y.y.8.8.=.=.=.T T T T T E E E E E E E E E E E E E E E E E E E E E E E E E E ",
"E E E E E E E E E E E E E E E E E E E E E =.=.=.=.=.=.=.=.=.=.=.=.=.=.=.=.R T E E E E E E E E E E E E E E E E E E E E E E E E E E E E E E E ",
"E E E E E E E E E E E E E E E E E E E E E E E E E E E E E E E E E E E E E E E E E E E E E E E E E E E E E E E E E E E E E E E E E E E E E E ",
"E E E E E E E E E E E E E E E E E E E E E E E E E E E E E E E E E E E E E E E E E E E E E E E E E E E E E E E E E E E E E E E E E E E E E E ",
"E E E E E E E E E E E E E E E E E E E E E E E E E E E E E E E E E E E E E E E E E E E E E E E E E E E E E E E E E E E E E E E E E E E E E E ",
"E E E E E E E E E E E E E E E E E E E E E E E E E E E E E E E E E E E E E E E E E E E E E E E E E E E E E E E E E E E E E E E E E E E E E E ",
"E E E E E E E E E E E E E E E E E E E E E E E E E E E E E E E E E E E E E E E E E E E E E E E E E E E E E E E E E E E E E E E E E E E E E E "
};
